solid OpenSCAD_Model
  facet normal 0 0 -1
    outer loop
      vertex 30 50 0
      vertex 80 40 0
      vertex 65 40 0
    endloop
  endfacet
  facet normal 0 0 -1
    outer loop
      vertex 130 50 0
      vertex 100 0 0
      vertex 115 40 0
    endloop
  endfacet
  facet normal -0 -0 -1
    outer loop
      vertex 80 10 0
      vertex 100 0 0
      vertex 65 10 0
    endloop
  endfacet
  facet normal 0 -0 -1
    outer loop
      vertex 65 40 0
      vertex 65 10 0
      vertex 60 20 0
    endloop
  endfacet
  facet normal 0 -0 -1
    outer loop
      vertex 65 10 0
      vertex 100 0 0
      vertex 0 0 0
    endloop
  endfacet
  facet normal 0 0 -1
    outer loop
      vertex 30 50 0
      vertex 40 30 0
      vertex 30 30 0
    endloop
  endfacet
  facet normal 0 0 -1
    outer loop
      vertex 30 50 0
      vertex 130 50 0
      vertex 80 40 0
    endloop
  endfacet
  facet normal -0 -0 -1
    outer loop
      vertex 98 10 0
      vertex 100 0 0
      vertex 85 10 0
    endloop
  endfacet
  facet normal 0 0 -1
    outer loop
      vertex 100 0 0
      vertex 98 10 0
      vertex 115 40 0
    endloop
  endfacet
  facet normal 0 0 -1
    outer loop
      vertex 85 10 0
      vertex 80 10 0
      vertex 80 40 0
    endloop
  endfacet
  facet normal -0 -0 -1
    outer loop
      vertex 85 10 0
      vertex 100 0 0
      vertex 80 10 0
    endloop
  endfacet
  facet normal 0 0 -1
    outer loop
      vertex 130 50 0
      vertex 85 40 0
      vertex 80 40 0
    endloop
  endfacet
  facet normal -0 -0 -1
    outer loop
      vertex 85 40 0
      vertex 85 10 0
      vertex 80 40 0
    endloop
  endfacet
  facet normal 0 0 -1
    outer loop
      vertex 130 50 0
      vertex 115 40 0
      vertex 85 40 0
    endloop
  endfacet
  facet normal 0 0 -1
    outer loop
      vertex 50 20 0
      vertex 40 20 0
      vertex 40 30 0
    endloop
  endfacet
  facet normal 0 -0 -1
    outer loop
      vertex 40 20 0
      vertex 65 10 0
      vertex 0 0 0
    endloop
  endfacet
  facet normal 0 0 -1
    outer loop
      vertex 30 50 0
      vertex 20 20 0
      vertex 0 0 0
    endloop
  endfacet
  facet normal 0 -0 -1
    outer loop
      vertex 20 20 0
      vertex 40 20 0
      vertex 0 0 0
    endloop
  endfacet
  facet normal 0 -0 -1
    outer loop
      vertex 30 50 0
      vertex 30 30 0
      vertex 20 20 0
    endloop
  endfacet
  facet normal -0 -0 -1
    outer loop
      vertex 60 20 0
      vertex 65 10 0
      vertex 50 20 0
    endloop
  endfacet
  facet normal -0 -0 -1
    outer loop
      vertex 50 20 0
      vertex 65 10 0
      vertex 40 20 0
    endloop
  endfacet
  facet normal -0 0 -1
    outer loop
      vertex 65 40 0
      vertex 40 30 0
      vertex 30 50 0
    endloop
  endfacet
  facet normal -0 -0 -1
    outer loop
      vertex 40 30 0
      vertex 40 20 0
      vertex 30 30 0
    endloop
  endfacet
  facet normal 0 0 -1
    outer loop
      vertex 65 40 0
      vertex 60 20 0
      vertex 40 30 0
    endloop
  endfacet
  facet normal 0 -0 1
    outer loop
      vertex 65 40 100
      vertex 80 40 100
      vertex 30 50 100
    endloop
  endfacet
  facet normal -0 0 1
    outer loop
      vertex 115 40 100
      vertex 100 0 100
      vertex 130 50 100
    endloop
  endfacet
  facet normal -0 0 1
    outer loop
      vertex 65 10 100
      vertex 100 0 100
      vertex 80 10 100
    endloop
  endfacet
  facet normal -0 0 1
    outer loop
      vertex 60 20 100
      vertex 65 10 100
      vertex 65 40 100
    endloop
  endfacet
  facet normal 0 0 1
    outer loop
      vertex 0 0 100
      vertex 100 0 100
      vertex 65 10 100
    endloop
  endfacet
  facet normal 0 0 1
    outer loop
      vertex 30 30 100
      vertex 40 30 100
      vertex 30 50 100
    endloop
  endfacet
  facet normal 0 -0 1
    outer loop
      vertex 80 40 100
      vertex 130 50 100
      vertex 30 50 100
    endloop
  endfacet
  facet normal -0 0 1
    outer loop
      vertex 85 10 100
      vertex 100 0 100
      vertex 98 10 100
    endloop
  endfacet
  facet normal 0 0 1
    outer loop
      vertex 115 40 100
      vertex 98 10 100
      vertex 100 0 100
    endloop
  endfacet
  facet normal 0 0 1
    outer loop
      vertex 80 40 100
      vertex 80 10 100
      vertex 85 10 100
    endloop
  endfacet
  facet normal -0 0 1
    outer loop
      vertex 80 10 100
      vertex 100 0 100
      vertex 85 10 100
    endloop
  endfacet
  facet normal 0 0 1
    outer loop
      vertex 80 40 100
      vertex 85 40 100
      vertex 130 50 100
    endloop
  endfacet
  facet normal -0 0 1
    outer loop
      vertex 80 40 100
      vertex 85 10 100
      vertex 85 40 100
    endloop
  endfacet
  facet normal 0 0 1
    outer loop
      vertex 85 40 100
      vertex 115 40 100
      vertex 130 50 100
    endloop
  endfacet
  facet normal 0 0 1
    outer loop
      vertex 40 30 100
      vertex 40 20 100
      vertex 50 20 100
    endloop
  endfacet
  facet normal 0 0 1
    outer loop
      vertex 0 0 100
      vertex 65 10 100
      vertex 40 20 100
    endloop
  endfacet
  facet normal 0 0 1
    outer loop
      vertex 0 0 100
      vertex 20 20 100
      vertex 30 50 100
    endloop
  endfacet
  facet normal 0 0 1
    outer loop
      vertex 0 0 100
      vertex 40 20 100
      vertex 20 20 100
    endloop
  endfacet
  facet normal 0 0 1
    outer loop
      vertex 20 20 100
      vertex 30 30 100
      vertex 30 50 100
    endloop
  endfacet
  facet normal -0 0 1
    outer loop
      vertex 50 20 100
      vertex 65 10 100
      vertex 60 20 100
    endloop
  endfacet
  facet normal -0 0 1
    outer loop
      vertex 40 20 100
      vertex 65 10 100
      vertex 50 20 100
    endloop
  endfacet
  facet normal 0 0 1
    outer loop
      vertex 30 50 100
      vertex 40 30 100
      vertex 65 40 100
    endloop
  endfacet
  facet normal -0 0 1
    outer loop
      vertex 30 30 100
      vertex 40 20 100
      vertex 40 30 100
    endloop
  endfacet
  facet normal -0 0 1
    outer loop
      vertex 40 30 100
      vertex 60 20 100
      vertex 65 40 100
    endloop
  endfacet
  facet normal 0 1 0
    outer loop
      vertex 30 50 0
      vertex 130 50 100
      vertex 130 50 0
    endloop
  endfacet
  facet normal 0 1 0
    outer loop
      vertex 30 50 0
      vertex 30 50 100
      vertex 130 50 100
    endloop
  endfacet
  facet normal -0.857493 0.514496 0
    outer loop
      vertex 0 0 0
      vertex 30 50 100
      vertex 30 50 0
    endloop
  endfacet
  facet normal -0.857493 0.514496 0
    outer loop
      vertex 0 0 0
      vertex 0 0 100
      vertex 30 50 100
    endloop
  endfacet
  facet normal 0 -1 0
    outer loop
      vertex 100 0 0
      vertex 0 0 100
      vertex 0 0 0
    endloop
  endfacet
  facet normal 0 -1 0
    outer loop
      vertex 100 0 0
      vertex 100 0 100
      vertex 0 0 100
    endloop
  endfacet
  facet normal 0.857493 -0.514496 0
    outer loop
      vertex 130 50 0
      vertex 100 0 100
      vertex 100 0 0
    endloop
  endfacet
  facet normal 0.857493 -0.514496 0
    outer loop
      vertex 130 50 0
      vertex 130 50 100
      vertex 100 0 100
    endloop
  endfacet
  facet normal 1 0 -0
    outer loop
      vertex 65 40 0
      vertex 65 40 100
      vertex 65 10 0
    endloop
  endfacet
  facet normal 1 -0 0
    outer loop
      vertex 65 10 100
      vertex 65 10 0
      vertex 65 40 100
    endloop
  endfacet
  facet normal 0 -1 0
    outer loop
      vertex 80 40 0
      vertex 80 40 100
      vertex 65 40 0
    endloop
  endfacet
  facet normal 0 -1 0
    outer loop
      vertex 65 40 100
      vertex 65 40 0
      vertex 80 40 100
    endloop
  endfacet
  facet normal -1 0 0
    outer loop
      vertex 80 10 0
      vertex 80 10 100
      vertex 80 40 0
    endloop
  endfacet
  facet normal -1 -0 -0
    outer loop
      vertex 80 40 100
      vertex 80 40 0
      vertex 80 10 100
    endloop
  endfacet
  facet normal 0 1 0
    outer loop
      vertex 65 10 0
      vertex 65 10 100
      vertex 80 10 0
    endloop
  endfacet
  facet normal 0 1 0
    outer loop
      vertex 80 10 100
      vertex 80 10 0
      vertex 65 10 100
    endloop
  endfacet
  facet normal 1 0 -0
    outer loop
      vertex 85 40 0
      vertex 85 40 100
      vertex 85 10 0
    endloop
  endfacet
  facet normal 1 -0 0
    outer loop
      vertex 85 10 100
      vertex 85 10 0
      vertex 85 40 100
    endloop
  endfacet
  facet normal 0 -1 0
    outer loop
      vertex 115 40 0
      vertex 115 40 100
      vertex 85 40 0
    endloop
  endfacet
  facet normal 0 -1 0
    outer loop
      vertex 85 40 100
      vertex 85 40 0
      vertex 115 40 100
    endloop
  endfacet
  facet normal -0.870022 0.493013 0
    outer loop
      vertex 98 10 0
      vertex 98 10 100
      vertex 115 40 0
    endloop
  endfacet
  facet normal -0.870022 0.493013 0
    outer loop
      vertex 115 40 100
      vertex 115 40 0
      vertex 98 10 100
    endloop
  endfacet
  facet normal 0 1 0
    outer loop
      vertex 85 10 0
      vertex 85 10 100
      vertex 98 10 0
    endloop
  endfacet
  facet normal 0 1 0
    outer loop
      vertex 98 10 100
      vertex 98 10 0
      vertex 85 10 100
    endloop
  endfacet
  facet normal 0.707107 -0.707107 0
    outer loop
      vertex 30 30 0
      vertex 30 30 100
      vertex 20 20 0
    endloop
  endfacet
  facet normal 0.707107 -0.707107 0
    outer loop
      vertex 20 20 100
      vertex 20 20 0
      vertex 30 30 100
    endloop
  endfacet
  facet normal -0.707107 -0.707107 0
    outer loop
      vertex 40 20 0
      vertex 40 20 100
      vertex 30 30 0
    endloop
  endfacet
  facet normal -0.707107 -0.707107 -0
    outer loop
      vertex 30 30 100
      vertex 30 30 0
      vertex 40 20 100
    endloop
  endfacet
  facet normal 0 1 0
    outer loop
      vertex 20 20 0
      vertex 20 20 100
      vertex 40 20 0
    endloop
  endfacet
  facet normal 0 1 0
    outer loop
      vertex 40 20 100
      vertex 40 20 0
      vertex 20 20 100
    endloop
  endfacet
  facet normal 0.707107 0.707107 -0
    outer loop
      vertex 40 30 0
      vertex 40 30 100
      vertex 50 20 0
    endloop
  endfacet
  facet normal 0.707107 0.707107 0
    outer loop
      vertex 50 20 100
      vertex 50 20 0
      vertex 40 30 100
    endloop
  endfacet
  facet normal -0.447214 -0.894427 0
    outer loop
      vertex 60 20 0
      vertex 60 20 100
      vertex 40 30 0
    endloop
  endfacet
  facet normal -0.447214 -0.894427 -0
    outer loop
      vertex 40 30 100
      vertex 40 30 0
      vertex 60 20 100
    endloop
  endfacet
  facet normal 0 1 0
    outer loop
      vertex 50 20 0
      vertex 50 20 100
      vertex 60 20 0
    endloop
  endfacet
  facet normal 0 1 0
    outer loop
      vertex 60 20 100
      vertex 60 20 0
      vertex 50 20 100
    endloop
  endfacet
endsolid OpenSCAD_Model
