solid OpenSCAD_Model
  facet normal -1 0 0
    outer loop
      vertex 5 5 5
      vertex 5 12 35
      vertex 5 12 5
    endloop
  endfacet
  facet normal -1 -0 0
    outer loop
      vertex 5 12 35
      vertex 5 5 5
      vertex 5 5 35
    endloop
  endfacet
  facet normal 0 0 1
    outer loop
      vertex 10 12 35
      vertex 5 12 35
      vertex 10 10 35
    endloop
  endfacet
  facet normal 0 0 1
    outer loop
      vertex 20 10 35
      vertex 55 12 35
      vertex 20 12 35
    endloop
  endfacet
  facet normal 0 0 1
    outer loop
      vertex 55 12 35
      vertex 20 10 35
      vertex 55 5 35
    endloop
  endfacet
  facet normal 0 0 1
    outer loop
      vertex 5 5 35
      vertex 20 10 35
      vertex 10 10 35
    endloop
  endfacet
  facet normal 0 0 1
    outer loop
      vertex 20 10 35
      vertex 5 5 35
      vertex 55 5 35
    endloop
  endfacet
  facet normal 0 0 1
    outer loop
      vertex 5 5 35
      vertex 10 10 35
      vertex 5 12 35
    endloop
  endfacet
  facet normal 1 -0 0
    outer loop
      vertex 55 5 35
      vertex 55 12 5
      vertex 55 12 35
    endloop
  endfacet
  facet normal 1 0 0
    outer loop
      vertex 55 12 5
      vertex 55 5 35
      vertex 55 5 5
    endloop
  endfacet
  facet normal 0 0 -1
    outer loop
      vertex 55 5 5
      vertex 20 10 5
      vertex 55 12 5
    endloop
  endfacet
  facet normal 0 0 -1
    outer loop
      vertex 5 5 5
      vertex 20 10 5
      vertex 55 5 5
    endloop
  endfacet
  facet normal -0 0 -1
    outer loop
      vertex 20 10 5
      vertex 5 5 5
      vertex 10 10 5
    endloop
  endfacet
  facet normal 0 0 -1
    outer loop
      vertex 5 12 5
      vertex 10 10 5
      vertex 5 5 5
    endloop
  endfacet
  facet normal 0 0 -1
    outer loop
      vertex 10 10 5
      vertex 5 12 5
      vertex 10 12 5
    endloop
  endfacet
  facet normal -0 0 -1
    outer loop
      vertex 55 12 5
      vertex 20 10 5
      vertex 20 12 5
    endloop
  endfacet
  facet normal 0 -1 0
    outer loop
      vertex 5 5 5
      vertex 55 5 35
      vertex 5 5 35
    endloop
  endfacet
  facet normal 0 -1 -0
    outer loop
      vertex 55 5 35
      vertex 5 5 5
      vertex 55 5 5
    endloop
  endfacet
  facet normal 0 1 -0
    outer loop
      vertex 55 12 5
      vertex 20 12 35
      vertex 55 12 35
    endloop
  endfacet
  facet normal 0 1 0
    outer loop
      vertex 20 12 35
      vertex 55 12 5
      vertex 20 12 5
    endloop
  endfacet
  facet normal 0 1 -0
    outer loop
      vertex 10 12 5
      vertex 5 12 35
      vertex 10 12 35
    endloop
  endfacet
  facet normal 0 1 0
    outer loop
      vertex 5 12 35
      vertex 10 12 5
      vertex 5 12 5
    endloop
  endfacet
  facet normal 1 -0 0
    outer loop
      vertex 10 10 35
      vertex 10 12 5
      vertex 10 12 35
    endloop
  endfacet
  facet normal 1 0 0
    outer loop
      vertex 10 12 5
      vertex 10 10 35
      vertex 10 10 5
    endloop
  endfacet
  facet normal -1 0 0
    outer loop
      vertex 20 10 5
      vertex 20 12 35
      vertex 20 12 5
    endloop
  endfacet
  facet normal -1 -0 0
    outer loop
      vertex 20 12 35
      vertex 20 10 5
      vertex 20 10 35
    endloop
  endfacet
  facet normal 0 1 -0
    outer loop
      vertex 20 10 5
      vertex 10 10 35
      vertex 20 10 35
    endloop
  endfacet
  facet normal 0 1 0
    outer loop
      vertex 10 10 35
      vertex 20 10 5
      vertex 10 10 5
    endloop
  endfacet
endsolid OpenSCAD_Model
