solid OpenSCAD_Model
  facet normal 0 -1 0
    outer loop
      vertex 59.1355 0 4.06737
      vertex 60 0 0
      vertex 59.7815 0 2.07912
    endloop
  endfacet
  facet normal -0 -1 -0
    outer loop
      vertex 58.0902 0 5.87785
      vertex 55 0 8.66025
      vertex 59.1355 0 4.06737
    endloop
  endfacet
  facet normal 0 -1 0
    outer loop
      vertex 59.1355 0 -4.06737
      vertex 53.0902 0 -9.51056
      vertex 55 0 -8.66025
    endloop
  endfacet
  facet normal -0 -1 -0
    outer loop
      vertex 56.6913 0 7.43145
      vertex 55 0 8.66025
      vertex 58.0902 0 5.87785
    endloop
  endfacet
  facet normal -0 -1 -0
    outer loop
      vertex 55 0 8.66025
      vertex 53.0902 0 9.51056
      vertex 59.1355 0 4.06737
    endloop
  endfacet
  facet normal 0 -1 0
    outer loop
      vertex 53.0902 0 9.51056
      vertex 51.0453 0 9.94522
      vertex 46.9098 0 9.51056
    endloop
  endfacet
  facet normal -0 -1 0
    outer loop
      vertex 51.0453 0 9.94522
      vertex 48.9547 0 9.94522
      vertex 46.9098 0 9.51056
    endloop
  endfacet
  facet normal -0 -1 0
    outer loop
      vertex 53.0902 0 9.51056
      vertex 46.9098 0 9.51056
      vertex 40.8645 0 4.06737
    endloop
  endfacet
  facet normal 0 -1 0
    outer loop
      vertex 40.8645 0 4.06737
      vertex 45 0 8.66025
      vertex 41.9098 0 5.87785
    endloop
  endfacet
  facet normal 0 -1 0
    outer loop
      vertex 46.9098 0 9.51056
      vertex 45 0 8.66025
      vertex 40.8645 0 4.06737
    endloop
  endfacet
  facet normal 0 -1 -0
    outer loop
      vertex 43.3087 0 7.43145
      vertex 41.9098 0 5.87785
      vertex 45 0 8.66025
    endloop
  endfacet
  facet normal 0 -1 -0
    outer loop
      vertex 53.0902 0 9.51056
      vertex 40.8645 0 4.06737
      vertex 59.1355 0 4.06737
    endloop
  endfacet
  facet normal 0 -1 -0
    outer loop
      vertex 40.8645 0 4.06737
      vertex 40 0 0
      vertex 40.8645 0 -4.06737
    endloop
  endfacet
  facet normal 0 -1 -0
    outer loop
      vertex 40.2185 0 2.07912
      vertex 40 0 0
      vertex 40.8645 0 4.06737
    endloop
  endfacet
  facet normal 0 -1 0
    outer loop
      vertex 40 0 0
      vertex 40.2185 0 -2.07912
      vertex 40.8645 0 -4.06737
    endloop
  endfacet
  facet normal 0 -1 0
    outer loop
      vertex 40.8645 0 4.06737
      vertex 40.8645 0 -4.06737
      vertex 59.1355 0 -4.06737
    endloop
  endfacet
  facet normal 0 -1 0
    outer loop
      vertex 40.8645 0 -4.06737
      vertex 45 0 -8.66025
      vertex 46.9098 0 -9.51056
    endloop
  endfacet
  facet normal 0 -1 0
    outer loop
      vertex 41.9098 0 -5.87785
      vertex 45 0 -8.66025
      vertex 40.8645 0 -4.06737
    endloop
  endfacet
  facet normal 0 -1 0
    outer loop
      vertex 43.3087 0 -7.43145
      vertex 45 0 -8.66025
      vertex 41.9098 0 -5.87785
    endloop
  endfacet
  facet normal 0 -1 0
    outer loop
      vertex 40.8645 0 -4.06737
      vertex 46.9098 0 -9.51056
      vertex 53.0902 0 -9.51056
    endloop
  endfacet
  facet normal 0 -1 0
    outer loop
      vertex 46.9098 0 -9.51056
      vertex 51.0453 0 -9.94522
      vertex 53.0902 0 -9.51056
    endloop
  endfacet
  facet normal 0 -1 0
    outer loop
      vertex 48.9547 0 -9.94522
      vertex 51.0453 0 -9.94522
      vertex 46.9098 0 -9.51056
    endloop
  endfacet
  facet normal 0 -1 0
    outer loop
      vertex 40.8645 0 -4.06737
      vertex 53.0902 0 -9.51056
      vertex 59.1355 0 -4.06737
    endloop
  endfacet
  facet normal 0 -1 0
    outer loop
      vertex 59.1355 0 -4.06737
      vertex 55 0 -8.66025
      vertex 58.0902 0 -5.87785
    endloop
  endfacet
  facet normal -0 -1 -0
    outer loop
      vertex 59.1355 0 4.06737
      vertex 40.8645 0 4.06737
      vertex 59.1355 0 -4.06737
    endloop
  endfacet
  facet normal -0 -1 0
    outer loop
      vertex 56.6913 0 -7.43145
      vertex 58.0902 0 -5.87785
      vertex 55 0 -8.66025
    endloop
  endfacet
  facet normal 0 -1 0
    outer loop
      vertex 59.1355 0 4.06737
      vertex 59.1355 0 -4.06737
      vertex 60 0 0
    endloop
  endfacet
  facet normal 0 -1 0
    outer loop
      vertex 59.1355 0 -4.06737
      vertex 59.7815 0 -2.07912
      vertex 60 0 0
    endloop
  endfacet
  facet normal -0.707107 0.707107 0
    outer loop
      vertex 42.2719 42.2719 2.07912
      vertex 42.4264 42.4264 0
      vertex 41.8151 41.8151 4.06737
    endloop
  endfacet
  facet normal -0.707107 0.707107 0
    outer loop
      vertex 41.8151 41.8151 4.06737
      vertex 38.8909 38.8909 8.66025
      vertex 41.076 41.076 5.87785
    endloop
  endfacet
  facet normal -0.707107 0.707107 0
    outer loop
      vertex 38.8909 38.8909 -8.66025
      vertex 37.5404 37.5404 -9.51056
      vertex 41.8151 41.8151 -4.06737
    endloop
  endfacet
  facet normal -0.707107 0.707107 0
    outer loop
      vertex 41.076 41.076 5.87785
      vertex 38.8909 38.8909 8.66025
      vertex 40.0868 40.0868 7.43145
    endloop
  endfacet
  facet normal -0.707107 0.707107 0
    outer loop
      vertex 41.8151 41.8151 4.06737
      vertex 37.5404 37.5404 9.51056
      vertex 38.8909 38.8909 8.66025
    endloop
  endfacet
  facet normal -0.707107 0.707107 0
    outer loop
      vertex 33.1703 33.1703 9.51056
      vertex 36.0945 36.0945 9.94522
      vertex 37.5404 37.5404 9.51056
    endloop
  endfacet
  facet normal -0.707107 0.707107 0
    outer loop
      vertex 33.1703 33.1703 9.51056
      vertex 34.6162 34.6162 9.94522
      vertex 36.0945 36.0945 9.94522
    endloop
  endfacet
  facet normal -0.707107 0.707107 0
    outer loop
      vertex 28.8956 28.8956 4.06737
      vertex 33.1703 33.1703 9.51056
      vertex 37.5404 37.5404 9.51056
    endloop
  endfacet
  facet normal -0.707107 0.707107 0
    outer loop
      vertex 29.6347 29.6347 5.87785
      vertex 31.8198 31.8198 8.66025
      vertex 28.8956 28.8956 4.06737
    endloop
  endfacet
  facet normal -0.707107 0.707107 0
    outer loop
      vertex 28.8956 28.8956 4.06737
      vertex 31.8198 31.8198 8.66025
      vertex 33.1703 33.1703 9.51056
    endloop
  endfacet
  facet normal -0.707107 0.707107 0
    outer loop
      vertex 31.8198 31.8198 8.66025
      vertex 29.6347 29.6347 5.87785
      vertex 30.6239 30.6239 7.43145
    endloop
  endfacet
  facet normal -0.707107 0.707107 0
    outer loop
      vertex 41.8151 41.8151 4.06737
      vertex 28.8956 28.8956 4.06737
      vertex 37.5404 37.5404 9.51056
    endloop
  endfacet
  facet normal -0.707107 0.707107 0
    outer loop
      vertex 28.8956 28.8956 -4.06737
      vertex 28.2843 28.2843 0
      vertex 28.8956 28.8956 4.06737
    endloop
  endfacet
  facet normal -0.707107 0.707107 0
    outer loop
      vertex 28.8956 28.8956 4.06737
      vertex 28.2843 28.2843 0
      vertex 28.4388 28.4388 2.07912
    endloop
  endfacet
  facet normal -0.707107 0.707107 0
    outer loop
      vertex 28.8956 28.8956 -4.06737
      vertex 28.4388 28.4388 -2.07912
      vertex 28.2843 28.2843 0
    endloop
  endfacet
  facet normal -0.707107 0.707107 0
    outer loop
      vertex 41.8151 41.8151 -4.06737
      vertex 28.8956 28.8956 -4.06737
      vertex 28.8956 28.8956 4.06737
    endloop
  endfacet
  facet normal -0.707107 0.707107 0
    outer loop
      vertex 33.1703 33.1703 -9.51056
      vertex 31.8198 31.8198 -8.66025
      vertex 28.8956 28.8956 -4.06737
    endloop
  endfacet
  facet normal -0.707107 0.707107 0
    outer loop
      vertex 28.8956 28.8956 -4.06737
      vertex 31.8198 31.8198 -8.66025
      vertex 29.6347 29.6347 -5.87785
    endloop
  endfacet
  facet normal -0.707107 0.707107 0
    outer loop
      vertex 29.6347 29.6347 -5.87785
      vertex 31.8198 31.8198 -8.66025
      vertex 30.6239 30.6239 -7.43145
    endloop
  endfacet
  facet normal -0.707107 0.707107 0
    outer loop
      vertex 37.5404 37.5404 -9.51056
      vertex 33.1703 33.1703 -9.51056
      vertex 28.8956 28.8956 -4.06737
    endloop
  endfacet
  facet normal -0.707107 0.707107 0
    outer loop
      vertex 37.5404 37.5404 -9.51056
      vertex 36.0945 36.0945 -9.94522
      vertex 33.1703 33.1703 -9.51056
    endloop
  endfacet
  facet normal -0.707107 0.707107 0
    outer loop
      vertex 33.1703 33.1703 -9.51056
      vertex 36.0945 36.0945 -9.94522
      vertex 34.6162 34.6162 -9.94522
    endloop
  endfacet
  facet normal -0.707107 0.707107 0
    outer loop
      vertex 41.8151 41.8151 -4.06737
      vertex 37.5404 37.5404 -9.51056
      vertex 28.8956 28.8956 -4.06737
    endloop
  endfacet
  facet normal -0.707107 0.707107 0
    outer loop
      vertex 41.076 41.076 -5.87785
      vertex 38.8909 38.8909 -8.66025
      vertex 41.8151 41.8151 -4.06737
    endloop
  endfacet
  facet normal -0.707107 0.707107 0
    outer loop
      vertex 41.8151 41.8151 -4.06737
      vertex 28.8956 28.8956 4.06737
      vertex 41.8151 41.8151 4.06737
    endloop
  endfacet
  facet normal -0.707107 0.707107 0
    outer loop
      vertex 38.8909 38.8909 -8.66025
      vertex 41.076 41.076 -5.87785
      vertex 40.0868 40.0868 -7.43145
    endloop
  endfacet
  facet normal -0.707107 0.707107 0
    outer loop
      vertex 42.4264 42.4264 0
      vertex 41.8151 41.8151 -4.06737
      vertex 41.8151 41.8151 4.06737
    endloop
  endfacet
  facet normal -0.707107 0.707107 0
    outer loop
      vertex 42.4264 42.4264 0
      vertex 42.2719 42.2719 -2.07912
      vertex 41.8151 41.8151 -4.06737
    endloop
  endfacet
  facet normal 0.943691 0.12424 -0.306614
    outer loop
      vertex 59.1355 0 -4.06737
      vertex 57.1205 15.3054 -4.06737
      vertex 59.7815 0 -2.07912
    endloop
  endfacet
  facet normal 0.943689 0.124239 -0.306619
    outer loop
      vertex 57.1205 15.3054 -4.06737
      vertex 57.7445 15.4726 -2.07912
      vertex 59.7815 0 -2.07912
    endloop
  endfacet
  facet normal 0.860447 0.113282 -0.496788
    outer loop
      vertex 58.0902 0 -5.87785
      vertex 56.1108 15.0348 -5.87785
      vertex 59.1355 0 -4.06737
    endloop
  endfacet
  facet normal 0.860442 0.11328 -0.496797
    outer loop
      vertex 56.1108 15.0348 -5.87785
      vertex 57.1205 15.3054 -4.06737
      vertex 59.1355 0 -4.06737
    endloop
  endfacet
  facet normal 0.739606 0.0973704 -0.66596
    outer loop
      vertex 56.6913 0 -7.43145
      vertex 54.7596 14.6728 -7.43145
      vertex 58.0902 0 -5.87785
    endloop
  endfacet
  facet normal 0.739615 0.0973737 -0.665949
    outer loop
      vertex 54.7596 14.6728 -7.43145
      vertex 56.1108 15.0348 -5.87785
      vertex 58.0902 0 -5.87785
    endloop
  endfacet
  facet normal 0.586033 0.0771538 -0.806606
    outer loop
      vertex 55 0 -8.66025
      vertex 53.1259 14.235 -8.66025
      vertex 56.6913 0 -7.43145
    endloop
  endfacet
  facet normal 0.586024 0.0771512 -0.806612
    outer loop
      vertex 53.1259 14.235 -8.66025
      vertex 54.7596 14.6728 -7.43145
      vertex 56.6913 0 -7.43145
    endloop
  endfacet
  facet normal 0.40616 0.053472 -0.912236
    outer loop
      vertex 53.0902 0 -9.51056
      vertex 51.2812 13.7407 -9.51056
      vertex 55 0 -8.66025
    endloop
  endfacet
  facet normal 0.406164 0.0534732 -0.912234
    outer loop
      vertex 51.2812 13.7407 -9.51056
      vertex 53.1259 14.235 -8.66025
      vertex 55 0 -8.66025
    endloop
  endfacet
  facet normal 0.207835 0.0273616 -0.977781
    outer loop
      vertex 51.0453 0 -9.94522
      vertex 49.306 13.2115 -9.94522
      vertex 53.0902 0 -9.51056
    endloop
  endfacet
  facet normal 0.207838 0.0273624 -0.97778
    outer loop
      vertex 49.306 13.2115 -9.94522
      vertex 51.2812 13.7407 -9.51056
      vertex 53.0902 0 -9.51056
    endloop
  endfacet
  facet normal 0 0 -1
    outer loop
      vertex 48.9547 0 -9.94522
      vertex 47.2866 12.6704 -9.94522
      vertex 51.0453 0 -9.94522
    endloop
  endfacet
  facet normal 0 0 -1
    outer loop
      vertex 47.2866 12.6704 -9.94522
      vertex 49.306 13.2115 -9.94522
      vertex 51.0453 0 -9.94522
    endloop
  endfacet
  facet normal -0.207835 -0.0273617 -0.977781
    outer loop
      vertex 46.9098 0 -9.51056
      vertex 45.3114 12.1412 -9.51056
      vertex 48.9547 0 -9.94522
    endloop
  endfacet
  facet normal -0.207838 -0.0273626 -0.97778
    outer loop
      vertex 45.3114 12.1412 -9.51056
      vertex 47.2866 12.6704 -9.94522
      vertex 48.9547 0 -9.94522
    endloop
  endfacet
  facet normal -0.40616 -0.0534704 -0.912236
    outer loop
      vertex 45 0 -8.66025
      vertex 43.4667 11.6469 -8.66025
      vertex 46.9098 0 -9.51056
    endloop
  endfacet
  facet normal -0.406164 -0.0534719 -0.912234
    outer loop
      vertex 43.4667 11.6469 -8.66025
      vertex 45.3114 12.1412 -9.51056
      vertex 46.9098 0 -9.51056
    endloop
  endfacet
  facet normal -0.586033 -0.0771524 -0.806606
    outer loop
      vertex 43.3087 0 -7.43145
      vertex 41.833 11.2091 -7.43145
      vertex 45 0 -8.66025
    endloop
  endfacet
  facet normal -0.586025 -0.0771494 -0.806612
    outer loop
      vertex 41.833 11.2091 -7.43145
      vertex 43.4667 11.6469 -8.66025
      vertex 45 0 -8.66025
    endloop
  endfacet
  facet normal -0.739606 -0.0973677 -0.66596
    outer loop
      vertex 41.9098 0 -5.87785
      vertex 40.4818 10.8471 -5.87785
      vertex 43.3087 0 -7.43145
    endloop
  endfacet
  facet normal -0.739616 -0.0973719 -0.665948
    outer loop
      vertex 40.4818 10.8471 -5.87785
      vertex 41.833 11.2091 -7.43145
      vertex 43.3087 0 -7.43145
    endloop
  endfacet
  facet normal -0.860447 -0.113278 -0.496788
    outer loop
      vertex 40.8645 0 -4.06737
      vertex 39.4721 10.5765 -4.06737
      vertex 41.9098 0 -5.87785
    endloop
  endfacet
  facet normal -0.860443 -0.113276 -0.496797
    outer loop
      vertex 39.4721 10.5765 -4.06737
      vertex 40.4818 10.8471 -5.87785
      vertex 41.9098 0 -5.87785
    endloop
  endfacet
  facet normal -0.943691 -0.124238 -0.306614
    outer loop
      vertex 40.2185 0 -2.07912
      vertex 38.8481 10.4093 -2.07912
      vertex 40.8645 0 -4.06737
    endloop
  endfacet
  facet normal -0.94369 -0.124237 -0.306619
    outer loop
      vertex 38.8481 10.4093 -2.07912
      vertex 39.4721 10.5765 -4.06737
      vertex 40.8645 0 -4.06737
    endloop
  endfacet
  facet normal -0.986106 -0.129826 -0.103632
    outer loop
      vertex 40 0 0
      vertex 38.637 10.3528 0
      vertex 40.2185 0 -2.07912
    endloop
  endfacet
  facet normal -0.986105 -0.129822 -0.10365
    outer loop
      vertex 38.637 10.3528 0
      vertex 38.8481 10.4093 -2.07912
      vertex 40.2185 0 -2.07912
    endloop
  endfacet
  facet normal -0.986107 -0.129822 0.103632
    outer loop
      vertex 40.2185 0 2.07912
      vertex 38.8481 10.4093 2.07912
      vertex 40 0 0
    endloop
  endfacet
  facet normal -0.986104 -0.129826 0.10365
    outer loop
      vertex 38.8481 10.4093 2.07912
      vertex 38.637 10.3528 0
      vertex 40 0 0
    endloop
  endfacet
  facet normal -0.943691 -0.124237 0.306614
    outer loop
      vertex 40.8645 0 4.06737
      vertex 39.4721 10.5765 4.06737
      vertex 40.2185 0 2.07912
    endloop
  endfacet
  facet normal -0.943689 -0.124238 0.306619
    outer loop
      vertex 39.4721 10.5765 4.06737
      vertex 38.8481 10.4093 2.07912
      vertex 40.2185 0 2.07912
    endloop
  endfacet
  facet normal -0.860447 -0.113276 0.496788
    outer loop
      vertex 41.9098 0 5.87785
      vertex 40.4818 10.8471 5.87785
      vertex 40.8645 0 4.06737
    endloop
  endfacet
  facet normal -0.860442 -0.113278 0.496797
    outer loop
      vertex 40.4818 10.8471 5.87785
      vertex 39.4721 10.5765 4.06737
      vertex 40.8645 0 4.06737
    endloop
  endfacet
  facet normal -0.739606 -0.0973706 0.66596
    outer loop
      vertex 43.3087 0 7.43145
      vertex 41.833 11.2091 7.43145
      vertex 41.9098 0 5.87785
    endloop
  endfacet
  facet normal -0.739616 -0.0973691 0.665948
    outer loop
      vertex 41.833 11.2091 7.43145
      vertex 40.4818 10.8471 5.87785
      vertex 41.9098 0 5.87785
    endloop
  endfacet
  facet normal -0.586033 -0.0771505 0.806606
    outer loop
      vertex 45 0 8.66025
      vertex 43.4667 11.6469 8.66025
      vertex 43.3087 0 7.43145
    endloop
  endfacet
  facet normal -0.586024 -0.0771513 0.806612
    outer loop
      vertex 43.4667 11.6469 8.66025
      vertex 41.833 11.2091 7.43145
      vertex 43.3087 0 7.43145
    endloop
  endfacet
  facet normal -0.40616 -0.0534713 0.912236
    outer loop
      vertex 46.9098 0 9.51056
      vertex 45.3114 12.1412 9.51056
      vertex 45 0 8.66025
    endloop
  endfacet
  facet normal -0.406164 -0.053471 0.912234
    outer loop
      vertex 45.3114 12.1412 9.51056
      vertex 43.4667 11.6469 8.66025
      vertex 45 0 8.66025
    endloop
  endfacet
  facet normal -0.207835 -0.0273622 0.977781
    outer loop
      vertex 48.9547 0 9.94522
      vertex 47.2866 12.6704 9.94522
      vertex 46.9098 0 9.51056
    endloop
  endfacet
  facet normal -0.207838 -0.0273621 0.97778
    outer loop
      vertex 47.2866 12.6704 9.94522
      vertex 45.3114 12.1412 9.51056
      vertex 46.9098 0 9.51056
    endloop
  endfacet
  facet normal 0 0 1
    outer loop
      vertex 51.0453 0 9.94522
      vertex 49.306 13.2115 9.94522
      vertex 48.9547 0 9.94522
    endloop
  endfacet
  facet normal 0 0 1
    outer loop
      vertex 49.306 13.2115 9.94522
      vertex 47.2866 12.6704 9.94522
      vertex 48.9547 0 9.94522
    endloop
  endfacet
  facet normal 0.207835 0.0273621 0.977781
    outer loop
      vertex 53.0902 0 9.51056
      vertex 51.2812 13.7407 9.51056
      vertex 51.0453 0 9.94522
    endloop
  endfacet
  facet normal 0.207838 0.027362 0.97778
    outer loop
      vertex 51.2812 13.7407 9.51056
      vertex 49.306 13.2115 9.94522
      vertex 51.0453 0 9.94522
    endloop
  endfacet
  facet normal 0.40616 0.0534727 0.912236
    outer loop
      vertex 55 0 8.66025
      vertex 53.1259 14.235 8.66025
      vertex 53.0902 0 9.51056
    endloop
  endfacet
  facet normal 0.406164 0.0534726 0.912234
    outer loop
      vertex 53.1259 14.235 8.66025
      vertex 51.2812 13.7407 9.51056
      vertex 53.0902 0 9.51056
    endloop
  endfacet
  facet normal 0.586033 0.0771523 0.806606
    outer loop
      vertex 56.6913 0 7.43145
      vertex 54.7596 14.6728 7.43145
      vertex 55 0 8.66025
    endloop
  endfacet
  facet normal 0.586024 0.0771526 0.806612
    outer loop
      vertex 54.7596 14.6728 7.43145
      vertex 53.1259 14.235 8.66025
      vertex 55 0 8.66025
    endloop
  endfacet
  facet normal 0.739606 0.0973725 0.665959
    outer loop
      vertex 58.0902 0 5.87785
      vertex 56.1108 15.0348 5.87785
      vertex 56.6913 0 7.43145
    endloop
  endfacet
  facet normal 0.739616 0.0973717 0.665948
    outer loop
      vertex 56.1108 15.0348 5.87785
      vertex 54.7596 14.6728 7.43145
      vertex 56.6913 0 7.43145
    endloop
  endfacet
  facet normal 0.860447 0.11328 0.496788
    outer loop
      vertex 59.1355 0 4.06737
      vertex 57.1205 15.3054 4.06737
      vertex 58.0902 0 5.87785
    endloop
  endfacet
  facet normal 0.860442 0.113281 0.496797
    outer loop
      vertex 57.1205 15.3054 4.06737
      vertex 56.1108 15.0348 5.87785
      vertex 58.0902 0 5.87785
    endloop
  endfacet
  facet normal 0.943691 0.124239 0.306614
    outer loop
      vertex 59.7815 0 2.07912
      vertex 57.7445 15.4726 2.07912
      vertex 59.1355 0 4.06737
    endloop
  endfacet
  facet normal 0.943689 0.124239 0.306619
    outer loop
      vertex 57.7445 15.4726 2.07912
      vertex 57.1205 15.3054 4.06737
      vertex 59.1355 0 4.06737
    endloop
  endfacet
  facet normal 0.986107 0.129821 0.103632
    outer loop
      vertex 60 0 0
      vertex 57.9556 15.5291 0
      vertex 59.7815 0 2.07912
    endloop
  endfacet
  facet normal 0.986105 0.129823 0.10365
    outer loop
      vertex 57.9556 15.5291 0
      vertex 57.7445 15.4726 2.07912
      vertex 59.7815 0 2.07912
    endloop
  endfacet
  facet normal 0.986107 0.129823 -0.103632
    outer loop
      vertex 59.7815 0 -2.07912
      vertex 57.7445 15.4726 -2.07912
      vertex 60 0 0
    endloop
  endfacet
  facet normal 0.986105 0.12982 -0.10365
    outer loop
      vertex 57.7445 15.4726 -2.07912
      vertex 57.9556 15.5291 0
      vertex 60 0 0
    endloop
  endfacet
  facet normal 0.879377 0.364254 -0.306619
    outer loop
      vertex 57.1205 15.3054 -4.06737
      vertex 51.2128 29.5677 -4.06737
      vertex 57.7445 15.4726 -2.07912
    endloop
  endfacet
  facet normal 0.879374 0.36425 -0.306633
    outer loop
      vertex 51.2128 29.5677 -4.06737
      vertex 51.7723 29.8907 -2.07912
      vertex 57.7445 15.4726 -2.07912
    endloop
  endfacet
  facet normal 0.801803 0.332114 -0.496802
    outer loop
      vertex 56.1108 15.0348 -5.87785
      vertex 50.3076 29.0451 -5.87785
      vertex 57.1205 15.3054 -4.06737
    endloop
  endfacet
  facet normal 0.801821 0.332129 -0.496763
    outer loop
      vertex 50.3076 29.0451 -5.87785
      vertex 51.2128 29.5677 -4.06737
      vertex 57.1205 15.3054 -4.06737
    endloop
  endfacet
  facet normal 0.689215 0.285482 -0.665945
    outer loop
      vertex 54.7596 14.6728 -7.43145
      vertex 49.0961 28.3457 -7.43145
      vertex 56.1108 15.0348 -5.87785
    endloop
  endfacet
  facet normal 0.689205 0.285475 -0.665958
    outer loop
      vertex 49.0961 28.3457 -7.43145
      vertex 50.3076 29.0451 -5.87785
      vertex 56.1108 15.0348 -5.87785
    endloop
  endfacet
  facet normal 0.546086 0.226194 -0.806614
    outer loop
      vertex 53.1259 14.235 -8.66025
      vertex 47.6314 27.5 -8.66025
      vertex 54.7596 14.6728 -7.43145
    endloop
  endfacet
  facet normal 0.546093 0.226199 -0.806608
    outer loop
      vertex 47.6314 27.5 -8.66025
      vertex 49.0961 28.3457 -7.43145
      vertex 54.7596 14.6728 -7.43145
    endloop
  endfacet
  facet normal 0.378484 0.156774 -0.912235
    outer loop
      vertex 51.2812 13.7407 -9.51056
      vertex 45.9774 26.5451 -9.51056
      vertex 53.1259 14.235 -8.66025
    endloop
  endfacet
  facet normal 0.378471 0.156767 -0.912241
    outer loop
      vertex 45.9774 26.5451 -9.51056
      vertex 47.6314 27.5 -8.66025
      vertex 53.1259 14.235 -8.66025
    endloop
  endfacet
  facet normal 0.193675 0.0802241 -0.97778
    outer loop
      vertex 49.306 13.2115 -9.94522
      vertex 44.2065 25.5226 -9.94522
      vertex 51.2812 13.7407 -9.51056
    endloop
  endfacet
  facet normal 0.193673 0.0802225 -0.977781
    outer loop
      vertex 44.2065 25.5226 -9.94522
      vertex 45.9774 26.5451 -9.51056
      vertex 51.2812 13.7407 -9.51056
    endloop
  endfacet
  facet normal 0 0 -1
    outer loop
      vertex 47.2866 12.6704 -9.94522
      vertex 42.396 24.4774 -9.94522
      vertex 49.306 13.2115 -9.94522
    endloop
  endfacet
  facet normal 0 0 -1
    outer loop
      vertex 42.396 24.4774 -9.94522
      vertex 44.2065 25.5226 -9.94522
      vertex 49.306 13.2115 -9.94522
    endloop
  endfacet
  facet normal -0.193675 -0.0802232 -0.97778
    outer loop
      vertex 45.3114 12.1412 -9.51056
      vertex 40.6251 23.4549 -9.51056
      vertex 47.2866 12.6704 -9.94522
    endloop
  endfacet
  facet normal -0.193673 -0.0802217 -0.977781
    outer loop
      vertex 40.6251 23.4549 -9.51056
      vertex 42.396 24.4774 -9.94522
      vertex 47.2866 12.6704 -9.94522
    endloop
  endfacet
  facet normal -0.378483 -0.156776 -0.912235
    outer loop
      vertex 43.4667 11.6469 -8.66025
      vertex 38.9711 22.5 -8.66025
      vertex 45.3114 12.1412 -9.51056
    endloop
  endfacet
  facet normal -0.37847 -0.156768 -0.912241
    outer loop
      vertex 38.9711 22.5 -8.66025
      vertex 40.6251 23.4549 -9.51056
      vertex 45.3114 12.1412 -9.51056
    endloop
  endfacet
  facet normal -0.546084 -0.226198 -0.806614
    outer loop
      vertex 41.833 11.2091 -7.43145
      vertex 37.5064 21.6543 -7.43145
      vertex 43.4667 11.6469 -8.66025
    endloop
  endfacet
  facet normal -0.546091 -0.226203 -0.806608
    outer loop
      vertex 37.5064 21.6543 -7.43145
      vertex 38.9711 22.5 -8.66025
      vertex 43.4667 11.6469 -8.66025
    endloop
  endfacet
  facet normal -0.689215 -0.285483 -0.665945
    outer loop
      vertex 40.4818 10.8471 -5.87785
      vertex 36.295 20.9549 -5.87785
      vertex 41.833 11.2091 -7.43145
    endloop
  endfacet
  facet normal -0.689223 -0.285489 -0.665934
    outer loop
      vertex 36.295 20.9549 -5.87785
      vertex 37.5064 21.6543 -7.43145
      vertex 41.833 11.2091 -7.43145
    endloop
  endfacet
  facet normal -0.801802 -0.332117 -0.496802
    outer loop
      vertex 39.4721 10.5765 -4.06737
      vertex 35.3897 20.4323 -4.06737
      vertex 40.4818 10.8471 -5.87785
    endloop
  endfacet
  facet normal -0.801805 -0.332119 -0.496796
    outer loop
      vertex 35.3897 20.4323 -4.06737
      vertex 36.295 20.9549 -5.87785
      vertex 40.4818 10.8471 -5.87785
    endloop
  endfacet
  facet normal -0.879381 -0.364245 -0.306619
    outer loop
      vertex 38.8481 10.4093 -2.07912
      vertex 34.8303 20.1093 -2.07912
      vertex 39.4721 10.5765 -4.06737
    endloop
  endfacet
  facet normal -0.879386 -0.364253 -0.306593
    outer loop
      vertex 34.8303 20.1093 -2.07912
      vertex 35.3897 20.4323 -4.06737
      vertex 39.4721 10.5765 -4.06737
    endloop
  endfacet
  facet normal -0.918904 -0.380622 -0.103643
    outer loop
      vertex 38.637 10.3528 0
      vertex 34.641 20 0
      vertex 38.8481 10.4093 -2.07912
    endloop
  endfacet
  facet normal -0.918903 -0.380616 -0.103674
    outer loop
      vertex 34.641 20 0
      vertex 34.8303 20.1093 -2.07912
      vertex 38.8481 10.4093 -2.07912
    endloop
  endfacet
  facet normal -0.918906 -0.380617 0.103643
    outer loop
      vertex 38.8481 10.4093 2.07912
      vertex 34.8303 20.1093 2.07912
      vertex 38.637 10.3528 0
    endloop
  endfacet
  facet normal -0.918901 -0.380621 0.103674
    outer loop
      vertex 34.8303 20.1093 2.07912
      vertex 34.641 20 0
      vertex 38.637 10.3528 0
    endloop
  endfacet
  facet normal -0.879379 -0.36425 0.306619
    outer loop
      vertex 39.4721 10.5765 4.06737
      vertex 35.3897 20.4323 4.06737
      vertex 38.8481 10.4093 2.07912
    endloop
  endfacet
  facet normal -0.879389 -0.364248 0.306592
    outer loop
      vertex 35.3897 20.4323 4.06737
      vertex 34.8303 20.1093 2.07912
      vertex 38.8481 10.4093 2.07912
    endloop
  endfacet
  facet normal -0.801801 -0.332118 0.496802
    outer loop
      vertex 40.4818 10.8471 5.87785
      vertex 36.295 20.9549 5.87785
      vertex 39.4721 10.5765 4.06737
    endloop
  endfacet
  facet normal -0.801805 -0.332118 0.496796
    outer loop
      vertex 36.295 20.9549 5.87785
      vertex 35.3897 20.4323 4.06737
      vertex 39.4721 10.5765 4.06737
    endloop
  endfacet
  facet normal -0.689214 -0.285485 0.665945
    outer loop
      vertex 41.833 11.2091 7.43145
      vertex 37.5064 21.6543 7.43145
      vertex 40.4818 10.8471 5.87785
    endloop
  endfacet
  facet normal -0.689224 -0.285487 0.665934
    outer loop
      vertex 37.5064 21.6543 7.43145
      vertex 36.295 20.9549 5.87785
      vertex 40.4818 10.8471 5.87785
    endloop
  endfacet
  facet normal -0.546084 -0.2262 0.806614
    outer loop
      vertex 43.4667 11.6469 8.66025
      vertex 38.9711 22.5 8.66025
      vertex 41.833 11.2091 7.43145
    endloop
  endfacet
  facet normal -0.546092 -0.226202 0.806608
    outer loop
      vertex 38.9711 22.5 8.66025
      vertex 37.5064 21.6543 7.43145
      vertex 41.833 11.2091 7.43145
    endloop
  endfacet
  facet normal -0.378484 -0.156774 0.912235
    outer loop
      vertex 45.3114 12.1412 9.51056
      vertex 40.6251 23.4549 9.51056
      vertex 43.4667 11.6469 8.66025
    endloop
  endfacet
  facet normal -0.378469 -0.15677 0.912241
    outer loop
      vertex 40.6251 23.4549 9.51056
      vertex 38.9711 22.5 8.66025
      vertex 43.4667 11.6469 8.66025
    endloop
  endfacet
  facet normal -0.193676 -0.0802227 0.97778
    outer loop
      vertex 47.2866 12.6704 9.94522
      vertex 42.396 24.4774 9.94522
      vertex 45.3114 12.1412 9.51056
    endloop
  endfacet
  facet normal -0.193673 -0.0802221 0.977781
    outer loop
      vertex 42.396 24.4774 9.94522
      vertex 40.6251 23.4549 9.51056
      vertex 45.3114 12.1412 9.51056
    endloop
  endfacet
  facet normal 0 0 1
    outer loop
      vertex 49.306 13.2115 9.94522
      vertex 44.2065 25.5226 9.94522
      vertex 47.2866 12.6704 9.94522
    endloop
  endfacet
  facet normal 0 0 1
    outer loop
      vertex 44.2065 25.5226 9.94522
      vertex 42.396 24.4774 9.94522
      vertex 47.2866 12.6704 9.94522
    endloop
  endfacet
  facet normal 0.193675 0.0802236 0.97778
    outer loop
      vertex 51.2812 13.7407 9.51056
      vertex 45.9774 26.5451 9.51056
      vertex 49.306 13.2115 9.94522
    endloop
  endfacet
  facet normal 0.193672 0.0802229 0.977781
    outer loop
      vertex 45.9774 26.5451 9.51056
      vertex 44.2065 25.5226 9.94522
      vertex 49.306 13.2115 9.94522
    endloop
  endfacet
  facet normal 0.378484 0.156772 0.912235
    outer loop
      vertex 53.1259 14.235 8.66025
      vertex 47.6314 27.5 8.66025
      vertex 51.2812 13.7407 9.51056
    endloop
  endfacet
  facet normal 0.37847 0.156769 0.912241
    outer loop
      vertex 47.6314 27.5 8.66025
      vertex 45.9774 26.5451 9.51056
      vertex 51.2812 13.7407 9.51056
    endloop
  endfacet
  facet normal 0.546085 0.226196 0.806614
    outer loop
      vertex 54.7596 14.6728 7.43145
      vertex 49.0961 28.3457 7.43145
      vertex 53.1259 14.235 8.66025
    endloop
  endfacet
  facet normal 0.546094 0.226198 0.806608
    outer loop
      vertex 49.0961 28.3457 7.43145
      vertex 47.6314 27.5 8.66025
      vertex 53.1259 14.235 8.66025
    endloop
  endfacet
  facet normal 0.689216 0.28548 0.665945
    outer loop
      vertex 56.1108 15.0348 5.87785
      vertex 50.3076 29.0451 5.87785
      vertex 54.7596 14.6728 7.43145
    endloop
  endfacet
  facet normal 0.689204 0.285477 0.665959
    outer loop
      vertex 50.3076 29.0451 5.87785
      vertex 49.0961 28.3457 7.43145
      vertex 54.7596 14.6728 7.43145
    endloop
  endfacet
  facet normal 0.801801 0.33212 0.496802
    outer loop
      vertex 57.1205 15.3054 4.06737
      vertex 51.2128 29.5677 4.06737
      vertex 56.1108 15.0348 5.87785
    endloop
  endfacet
  facet normal 0.801824 0.332123 0.496762
    outer loop
      vertex 51.2128 29.5677 4.06737
      vertex 50.3076 29.0451 5.87785
      vertex 56.1108 15.0348 5.87785
    endloop
  endfacet
  facet normal 0.879378 0.364252 0.306619
    outer loop
      vertex 57.7445 15.4726 2.07912
      vertex 51.7723 29.8907 2.07912
      vertex 57.1205 15.3054 4.06737
    endloop
  endfacet
  facet normal 0.879373 0.364252 0.306633
    outer loop
      vertex 51.7723 29.8907 2.07912
      vertex 51.2128 29.5677 4.06737
      vertex 57.1205 15.3054 4.06737
    endloop
  endfacet
  facet normal 0.918903 0.380626 0.103643
    outer loop
      vertex 57.9556 15.5291 0
      vertex 51.9615 30 0
      vertex 57.7445 15.4726 2.07912
    endloop
  endfacet
  facet normal 0.918905 0.380625 0.10363
    outer loop
      vertex 51.9615 30 0
      vertex 51.7723 29.8907 2.07912
      vertex 57.7445 15.4726 2.07912
    endloop
  endfacet
  facet normal 0.918903 0.380624 -0.103643
    outer loop
      vertex 57.7445 15.4726 -2.07912
      vertex 51.7723 29.8907 -2.07912
      vertex 57.9556 15.5291 0
    endloop
  endfacet
  facet normal 0.918904 0.380626 -0.10363
    outer loop
      vertex 51.7723 29.8907 -2.07912
      vertex 51.9615 30 0
      vertex 57.9556 15.5291 0
    endloop
  endfacet
  facet normal 0.755138 0.579434 -0.30663
    outer loop
      vertex 51.2128 29.5677 -4.06737
      vertex 41.8151 41.8151 -4.06737
      vertex 51.7723 29.8907 -2.07912
    endloop
  endfacet
  facet normal 0.75514 0.579438 -0.306619
    outer loop
      vertex 41.8151 41.8151 -4.06737
      vertex 42.2719 42.2719 -2.07912
      vertex 51.7723 29.8907 -2.07912
    endloop
  endfacet
  facet normal 0.688542 0.528335 -0.496761
    outer loop
      vertex 50.3076 29.0451 -5.87785
      vertex 41.076 41.076 -5.87785
      vertex 51.2128 29.5677 -4.06737
    endloop
  endfacet
  facet normal 0.68854 0.528332 -0.496769
    outer loop
      vertex 41.076 41.076 -5.87785
      vertex 41.8151 41.8151 -4.06737
      vertex 51.2128 29.5677 -4.06737
    endloop
  endfacet
  facet normal 0.591834 0.454132 -0.665955
    outer loop
      vertex 49.0961 28.3457 -7.43145
      vertex 40.0868 40.0868 -7.43145
      vertex 50.3076 29.0451 -5.87785
    endloop
  endfacet
  facet normal 0.591825 0.454122 -0.66597
    outer loop
      vertex 40.0868 40.0868 -7.43145
      vertex 41.076 41.076 -5.87785
      vertex 50.3076 29.0451 -5.87785
    endloop
  endfacet
  facet normal 0.468939 0.359828 -0.80661
    outer loop
      vertex 47.6314 27.5 -8.66025
      vertex 38.8909 38.8909 -8.66025
      vertex 49.0961 28.3457 -7.43145
    endloop
  endfacet
  facet normal 0.46895 0.359839 -0.806599
    outer loop
      vertex 38.8909 38.8909 -8.66025
      vertex 40.0868 40.0868 -7.43145
      vertex 49.0961 28.3457 -7.43145
    endloop
  endfacet
  facet normal 0.325001 0.249382 -0.91224
    outer loop
      vertex 45.9774 26.5451 -9.51056
      vertex 37.5404 37.5404 -9.51056
      vertex 47.6314 27.5 -8.66025
    endloop
  endfacet
  facet normal 0.324996 0.249377 -0.912244
    outer loop
      vertex 37.5404 37.5404 -9.51056
      vertex 38.8909 38.8909 -8.66025
      vertex 47.6314 27.5 -8.66025
    endloop
  endfacet
  facet normal 0.16631 0.127613 -0.977781
    outer loop
      vertex 44.2065 25.5226 -9.94522
      vertex 36.0945 36.0945 -9.94522
      vertex 45.9774 26.5451 -9.51056
    endloop
  endfacet
  facet normal 0.166316 0.127619 -0.977779
    outer loop
      vertex 36.0945 36.0945 -9.94522
      vertex 37.5404 37.5404 -9.51056
      vertex 45.9774 26.5451 -9.51056
    endloop
  endfacet
  facet normal 0 0 -1
    outer loop
      vertex 42.396 24.4774 -9.94522
      vertex 34.6162 34.6162 -9.94522
      vertex 44.2065 25.5226 -9.94522
    endloop
  endfacet
  facet normal 0 0 -1
    outer loop
      vertex 34.6162 34.6162 -9.94522
      vertex 36.0945 36.0945 -9.94522
      vertex 44.2065 25.5226 -9.94522
    endloop
  endfacet
  facet normal -0.16631 -0.127613 -0.977781
    outer loop
      vertex 40.6251 23.4549 -9.51056
      vertex 33.1703 33.1703 -9.51056
      vertex 42.396 24.4774 -9.94522
    endloop
  endfacet
  facet normal -0.166316 -0.127619 -0.977779
    outer loop
      vertex 33.1703 33.1703 -9.51056
      vertex 34.6162 34.6162 -9.94522
      vertex 42.396 24.4774 -9.94522
    endloop
  endfacet
  facet normal -0.325002 -0.249381 -0.912241
    outer loop
      vertex 38.9711 22.5 -8.66025
      vertex 31.8198 31.8198 -8.66025
      vertex 40.6251 23.4549 -9.51056
    endloop
  endfacet
  facet normal -0.324997 -0.249376 -0.912244
    outer loop
      vertex 31.8198 31.8198 -8.66025
      vertex 33.1703 33.1703 -9.51056
      vertex 40.6251 23.4549 -9.51056
    endloop
  endfacet
  facet normal -0.468941 -0.359825 -0.80661
    outer loop
      vertex 37.5064 21.6543 -7.43145
      vertex 30.6239 30.6239 -7.43145
      vertex 38.9711 22.5 -8.66025
    endloop
  endfacet
  facet normal -0.468951 -0.359837 -0.806599
    outer loop
      vertex 30.6239 30.6239 -7.43145
      vertex 31.8198 31.8198 -8.66025
      vertex 38.9711 22.5 -8.66025
    endloop
  endfacet
  facet normal -0.591849 -0.454145 -0.665934
    outer loop
      vertex 36.295 20.9549 -5.87785
      vertex 29.6347 29.6347 -5.87785
      vertex 37.5064 21.6543 -7.43145
    endloop
  endfacet
  facet normal -0.591828 -0.454118 -0.66597
    outer loop
      vertex 29.6347 29.6347 -5.87785
      vertex 30.6239 30.6239 -7.43145
      vertex 37.5064 21.6543 -7.43145
    endloop
  endfacet
  facet normal -0.688529 -0.528325 -0.49679
    outer loop
      vertex 35.3897 20.4323 -4.06737
      vertex 28.8956 28.8956 -4.06737
      vertex 36.295 20.9549 -5.87785
    endloop
  endfacet
  facet normal -0.688536 -0.528336 -0.496769
    outer loop
      vertex 28.8956 28.8956 -4.06737
      vertex 29.6347 29.6347 -5.87785
      vertex 36.295 20.9549 -5.87785
    endloop
  endfacet
  facet normal -0.755143 -0.579446 -0.306595
    outer loop
      vertex 34.8303 20.1093 -2.07912
      vertex 28.4388 28.4388 -2.07912
      vertex 35.3897 20.4323 -4.06737
    endloop
  endfacet
  facet normal -0.75514 -0.579438 -0.306619
    outer loop
      vertex 28.4388 28.4388 -2.07912
      vertex 28.8956 28.8956 -4.06737
      vertex 35.3897 20.4323 -4.06737
    endloop
  endfacet
  facet normal -0.789081 -0.605477 -0.103674
    outer loop
      vertex 34.641 20 0
      vertex 28.2843 28.2843 0
      vertex 34.8303 20.1093 -2.07912
    endloop
  endfacet
  facet normal -0.78908 -0.605487 -0.103631
    outer loop
      vertex 28.2843 28.2843 0
      vertex 28.4388 28.4388 -2.07912
      vertex 34.8303 20.1093 -2.07912
    endloop
  endfacet
  facet normal -0.789076 -0.605484 0.103674
    outer loop
      vertex 34.8303 20.1093 2.07912
      vertex 28.4388 28.4388 2.07912
      vertex 34.641 20 0
    endloop
  endfacet
  facet normal -0.789085 -0.60548 0.10363
    outer loop
      vertex 28.4388 28.4388 2.07912
      vertex 28.2843 28.2843 0
      vertex 34.641 20 0
    endloop
  endfacet
  facet normal -0.755146 -0.579442 0.306596
    outer loop
      vertex 35.3897 20.4323 4.06737
      vertex 28.8956 28.8956 4.06737
      vertex 34.8303 20.1093 2.07912
    endloop
  endfacet
  facet normal -0.755137 -0.579442 0.306619
    outer loop
      vertex 28.8956 28.8956 4.06737
      vertex 28.4388 28.4388 2.07912
      vertex 34.8303 20.1093 2.07912
    endloop
  endfacet
  facet normal -0.688526 -0.528329 0.49679
    outer loop
      vertex 36.295 20.9549 5.87785
      vertex 29.6347 29.6347 5.87785
      vertex 35.3897 20.4323 4.06737
    endloop
  endfacet
  facet normal -0.688539 -0.528333 0.496769
    outer loop
      vertex 29.6347 29.6347 5.87785
      vertex 28.8956 28.8956 4.06737
      vertex 35.3897 20.4323 4.06737
    endloop
  endfacet
  facet normal -0.591854 -0.454138 0.665934
    outer loop
      vertex 37.5064 21.6543 7.43145
      vertex 30.6239 30.6239 7.43145
      vertex 36.295 20.9549 5.87785
    endloop
  endfacet
  facet normal -0.591823 -0.454125 0.66597
    outer loop
      vertex 30.6239 30.6239 7.43145
      vertex 29.6347 29.6347 5.87785
      vertex 36.295 20.9549 5.87785
    endloop
  endfacet
  facet normal -0.468939 -0.359828 0.80661
    outer loop
      vertex 38.9711 22.5 8.66025
      vertex 31.8198 31.8198 8.66025
      vertex 37.5064 21.6543 7.43145
    endloop
  endfacet
  facet normal -0.468954 -0.359835 0.806599
    outer loop
      vertex 31.8198 31.8198 8.66025
      vertex 30.6239 30.6239 7.43145
      vertex 37.5064 21.6543 7.43145
    endloop
  endfacet
  facet normal -0.325002 -0.24938 0.912241
    outer loop
      vertex 40.6251 23.4549 9.51056
      vertex 33.1703 33.1703 9.51056
      vertex 38.9711 22.5 8.66025
    endloop
  endfacet
  facet normal -0.324996 -0.249377 0.912244
    outer loop
      vertex 33.1703 33.1703 9.51056
      vertex 31.8198 31.8198 8.66025
      vertex 38.9711 22.5 8.66025
    endloop
  endfacet
  facet normal -0.166309 -0.127614 0.977781
    outer loop
      vertex 42.396 24.4774 9.94522
      vertex 34.6162 34.6162 9.94522
      vertex 40.6251 23.4549 9.51056
    endloop
  endfacet
  facet normal -0.166317 -0.127618 0.977779
    outer loop
      vertex 34.6162 34.6162 9.94522
      vertex 33.1703 33.1703 9.51056
      vertex 40.6251 23.4549 9.51056
    endloop
  endfacet
  facet normal 0 0 1
    outer loop
      vertex 44.2065 25.5226 9.94522
      vertex 36.0945 36.0945 9.94522
      vertex 42.396 24.4774 9.94522
    endloop
  endfacet
  facet normal 0 0 1
    outer loop
      vertex 36.0945 36.0945 9.94522
      vertex 34.6162 34.6162 9.94522
      vertex 42.396 24.4774 9.94522
    endloop
  endfacet
  facet normal 0.166309 0.127614 0.977781
    outer loop
      vertex 45.9774 26.5451 9.51056
      vertex 37.5404 37.5404 9.51056
      vertex 44.2065 25.5226 9.94522
    endloop
  endfacet
  facet normal 0.166317 0.127618 0.977779
    outer loop
      vertex 37.5404 37.5404 9.51056
      vertex 36.0945 36.0945 9.94522
      vertex 44.2065 25.5226 9.94522
    endloop
  endfacet
  facet normal 0.325002 0.249381 0.912241
    outer loop
      vertex 47.6314 27.5 8.66025
      vertex 38.8909 38.8909 8.66025
      vertex 45.9774 26.5451 9.51056
    endloop
  endfacet
  facet normal 0.324995 0.249378 0.912244
    outer loop
      vertex 38.8909 38.8909 8.66025
      vertex 37.5404 37.5404 9.51056
      vertex 45.9774 26.5451 9.51056
    endloop
  endfacet
  facet normal 0.468938 0.35983 0.80661
    outer loop
      vertex 49.0961 28.3457 7.43145
      vertex 40.0868 40.0868 7.43145
      vertex 47.6314 27.5 8.66025
    endloop
  endfacet
  facet normal 0.468952 0.359837 0.806599
    outer loop
      vertex 40.0868 40.0868 7.43145
      vertex 38.8909 38.8909 8.66025
      vertex 47.6314 27.5 8.66025
    endloop
  endfacet
  facet normal 0.591836 0.45413 0.665955
    outer loop
      vertex 50.3076 29.0451 5.87785
      vertex 41.076 41.076 5.87785
      vertex 49.0961 28.3457 7.43145
    endloop
  endfacet
  facet normal 0.591824 0.454124 0.66597
    outer loop
      vertex 41.076 41.076 5.87785
      vertex 40.0868 40.0868 7.43145
      vertex 49.0961 28.3457 7.43145
    endloop
  endfacet
  facet normal 0.688543 0.528334 0.496761
    outer loop
      vertex 51.2128 29.5677 4.06737
      vertex 41.8151 41.8151 4.06737
      vertex 50.3076 29.0451 5.87785
    endloop
  endfacet
  facet normal 0.688539 0.528332 0.496769
    outer loop
      vertex 41.8151 41.8151 4.06737
      vertex 41.076 41.076 5.87785
      vertex 50.3076 29.0451 5.87785
    endloop
  endfacet
  facet normal 0.755137 0.579436 0.30663
    outer loop
      vertex 51.7723 29.8907 2.07912
      vertex 42.2719 42.2719 2.07912
      vertex 51.2128 29.5677 4.06737
    endloop
  endfacet
  facet normal 0.755141 0.579436 0.306619
    outer loop
      vertex 42.2719 42.2719 2.07912
      vertex 41.8151 41.8151 4.06737
      vertex 51.2128 29.5677 4.06737
    endloop
  endfacet
  facet normal 0.789082 0.605483 0.103637
    outer loop
      vertex 51.9615 30 0
      vertex 42.4264 42.4264 0
      vertex 51.7723 29.8907 2.07912
    endloop
  endfacet
  facet normal 0.789083 0.605483 0.103631
    outer loop
      vertex 42.4264 42.4264 0
      vertex 42.2719 42.2719 2.07912
      vertex 51.7723 29.8907 2.07912
    endloop
  endfacet
  facet normal 0.789082 0.605482 -0.103637
    outer loop
      vertex 51.7723 29.8907 -2.07912
      vertex 42.2719 42.2719 -2.07912
      vertex 51.9615 30 0
    endloop
  endfacet
  facet normal 0.789082 0.605483 -0.103631
    outer loop
      vertex 42.2719 42.2719 -2.07912
      vertex 42.4264 42.4264 0
      vertex 51.9615 30 0
    endloop
  endfacet
endsolid OpenSCAD_Model
