solid OpenSCAD_Model
  facet normal -0 0 1
    outer loop
      vertex 5 10.1 10.1
      vertex 10.1 5 10.1
      vertex 10.1 10.1 10.1
    endloop
  endfacet
  facet normal 0 0 1
    outer loop
      vertex 10.1 5 10.1
      vertex 5 10.1 10.1
      vertex 5 5 10.1
    endloop
  endfacet
  facet normal 0 0 -1
    outer loop
      vertex 5 5 5
      vertex 10.1 10.1 5
      vertex 10.1 5 5
    endloop
  endfacet
  facet normal -0 0 -1
    outer loop
      vertex 10.1 10.1 5
      vertex 5 5 5
      vertex 5 10.1 5
    endloop
  endfacet
  facet normal 0 -1 0
    outer loop
      vertex 5 5 5
      vertex 10.1 5 10.1
      vertex 5 5 10.1
    endloop
  endfacet
  facet normal 0 -1 -0
    outer loop
      vertex 10.1 5 10.1
      vertex 5 5 5
      vertex 10.1 5 5
    endloop
  endfacet
  facet normal 1 -0 0
    outer loop
      vertex 10.1 5 10.1
      vertex 10.1 10.1 5
      vertex 10.1 10.1 10.1
    endloop
  endfacet
  facet normal 1 0 0
    outer loop
      vertex 10.1 10.1 5
      vertex 10.1 5 10.1
      vertex 10.1 5 5
    endloop
  endfacet
  facet normal 0 1 -0
    outer loop
      vertex 10.1 10.1 5
      vertex 5 10.1 10.1
      vertex 10.1 10.1 10.1
    endloop
  endfacet
  facet normal 0 1 0
    outer loop
      vertex 5 10.1 10.1
      vertex 10.1 10.1 5
      vertex 5 10.1 5
    endloop
  endfacet
  facet normal -1 0 0
    outer loop
      vertex 5 5 5
      vertex 5 10.1 10.1
      vertex 5 10.1 5
    endloop
  endfacet
  facet normal -1 -0 0
    outer loop
      vertex 5 10.1 10.1
      vertex 5 5 5
      vertex 5 5 10.1
    endloop
  endfacet
endsolid OpenSCAD_Model
