solid OpenSCAD_Model
  facet normal 0 -0 1
    outer loop
      vertex 15.1 10 15.1
      vertex 15.1 15.1 15.1
      vertex 10 10 15.1
    endloop
  endfacet
  facet normal 0 1 -0
    outer loop
      vertex 15.1 15.1 10
      vertex 10 15.1 15.1
      vertex 15.1 15.1 15.1
    endloop
  endfacet
  facet normal 0 -0.454326 0.890835
    outer loop
      vertex 0 0 10
      vertex 10 0 10
      vertex 15.1 10 15.1
    endloop
  endfacet
  facet normal 0 0 1
    outer loop
      vertex 15.1 15.1 15.1
      vertex 10 15.1 15.1
      vertex 10 10 15.1
    endloop
  endfacet
  facet normal 0 0 -1
    outer loop
      vertex 10 0 0
      vertex 0 0 0
      vertex 0 10 0
    endloop
  endfacet
  facet normal 0 -0.454326 0.890835
    outer loop
      vertex 10 10 15.1
      vertex 0 0 10
      vertex 15.1 10 15.1
    endloop
  endfacet
  facet normal 0.890835 -0.454326 0
    outer loop
      vertex 10 0 0
      vertex 15.1 10 10
      vertex 15.1 10 15.1
    endloop
  endfacet
  facet normal 0.890835 0 -0.454326
    outer loop
      vertex 10 10 0
      vertex 15.1 15.1 10
      vertex 10 0 0
    endloop
  endfacet
  facet normal -1 0 0
    outer loop
      vertex 0 0 10
      vertex 0 10 10
      vertex 0 10 0
    endloop
  endfacet
  facet normal -0.454326 0 0.890835
    outer loop
      vertex 10 10 15.1
      vertex 0 10 10
      vertex 0 0 10
    endloop
  endfacet
  facet normal -0 -0 -1
    outer loop
      vertex 10 10 0
      vertex 10 0 0
      vertex 0 10 0
    endloop
  endfacet
  facet normal 0 0.890835 -0.454326
    outer loop
      vertex 0 10 0
      vertex 15.1 15.1 10
      vertex 10 10 0
    endloop
  endfacet
  facet normal -0.454326 0.890835 0
    outer loop
      vertex 10 15.1 15.1
      vertex 10 15.1 10
      vertex 0 10 0
    endloop
  endfacet
  facet normal 1 -0 0
    outer loop
      vertex 15.1 10 15.1
      vertex 15.1 15.1 10
      vertex 15.1 15.1 15.1
    endloop
  endfacet
  facet normal -0.454326 0.890835 0
    outer loop
      vertex 0 10 10
      vertex 10 15.1 15.1
      vertex 0 10 0
    endloop
  endfacet
  facet normal -0.454326 0 0.890835
    outer loop
      vertex 10 10 15.1
      vertex 10 15.1 15.1
      vertex 0 10 10
    endloop
  endfacet
  facet normal 0 -1 0
    outer loop
      vertex 10 0 0
      vertex 10 0 10
      vertex 0 0 10
    endloop
  endfacet
  facet normal 0.890835 -0.454326 0
    outer loop
      vertex 15.1 10 15.1
      vertex 10 0 10
      vertex 10 0 0
    endloop
  endfacet
  facet normal 0 -1 0
    outer loop
      vertex 0 0 10
      vertex 0 0 0
      vertex 10 0 0
    endloop
  endfacet
  facet normal -1 0 0
    outer loop
      vertex 0 10 0
      vertex 0 0 0
      vertex 0 0 10
    endloop
  endfacet
  facet normal 0.890835 0 -0.454326
    outer loop
      vertex 15.1 15.1 10
      vertex 15.1 10 10
      vertex 10 0 0
    endloop
  endfacet
  facet normal 1 0 0
    outer loop
      vertex 15.1 10 15.1
      vertex 15.1 10 10
      vertex 15.1 15.1 10
    endloop
  endfacet
  facet normal 0 1 0
    outer loop
      vertex 15.1 15.1 10
      vertex 10 15.1 10
      vertex 10 15.1 15.1
    endloop
  endfacet
  facet normal 0 0.890835 -0.454326
    outer loop
      vertex 0 10 0
      vertex 10 15.1 10
      vertex 15.1 15.1 10
    endloop
  endfacet
endsolid OpenSCAD_Model
