solid OpenSCAD_Model
  facet normal 0 -1 0
    outer loop
      vertex 65 0 40
      vertex 80 0 40
      vertex 30 0 50
    endloop
  endfacet
  facet normal 0 -1 -0
    outer loop
      vertex 115 0 40
      vertex 100 0 0
      vertex 130 0 50
    endloop
  endfacet
  facet normal 0 -1 0
    outer loop
      vertex 65 0 10
      vertex 100 0 0
      vertex 80 0 10
    endloop
  endfacet
  facet normal 0 -1 0
    outer loop
      vertex 60 0 20
      vertex 65 0 10
      vertex 65 0 40
    endloop
  endfacet
  facet normal 0 -1 0
    outer loop
      vertex 0 0 0
      vertex 100 0 0
      vertex 65 0 10
    endloop
  endfacet
  facet normal 0 -1 0
    outer loop
      vertex 30 0 30
      vertex 40 0 30
      vertex 30 0 50
    endloop
  endfacet
  facet normal 0 -1 0
    outer loop
      vertex 80 0 40
      vertex 130 0 50
      vertex 30 0 50
    endloop
  endfacet
  facet normal 0 -1 0
    outer loop
      vertex 85 0 10
      vertex 100 0 0
      vertex 98 0 10
    endloop
  endfacet
  facet normal 0 -1 0
    outer loop
      vertex 115 0 40
      vertex 98 0 10
      vertex 100 0 0
    endloop
  endfacet
  facet normal 0 -1 0
    outer loop
      vertex 80 0 40
      vertex 80 0 10
      vertex 85 0 10
    endloop
  endfacet
  facet normal 0 -1 0
    outer loop
      vertex 80 0 10
      vertex 100 0 0
      vertex 85 0 10
    endloop
  endfacet
  facet normal 0 -1 0
    outer loop
      vertex 80 0 40
      vertex 85 0 40
      vertex 130 0 50
    endloop
  endfacet
  facet normal 0 -1 0
    outer loop
      vertex 80 0 40
      vertex 85 0 10
      vertex 85 0 40
    endloop
  endfacet
  facet normal 0 -1 0
    outer loop
      vertex 85 0 40
      vertex 115 0 40
      vertex 130 0 50
    endloop
  endfacet
  facet normal 0 -1 0
    outer loop
      vertex 40 0 30
      vertex 40 0 20
      vertex 50 0 20
    endloop
  endfacet
  facet normal 0 -1 0
    outer loop
      vertex 0 0 0
      vertex 65 0 10
      vertex 40 0 20
    endloop
  endfacet
  facet normal 0 -1 0
    outer loop
      vertex 0 0 0
      vertex 20 0 20
      vertex 30 0 50
    endloop
  endfacet
  facet normal 0 -1 0
    outer loop
      vertex 0 0 0
      vertex 40 0 20
      vertex 20 0 20
    endloop
  endfacet
  facet normal 0 -1 0
    outer loop
      vertex 20 0 20
      vertex 30 0 30
      vertex 30 0 50
    endloop
  endfacet
  facet normal 0 -1 0
    outer loop
      vertex 50 0 20
      vertex 65 0 10
      vertex 60 0 20
    endloop
  endfacet
  facet normal 0 -1 0
    outer loop
      vertex 40 0 20
      vertex 65 0 10
      vertex 50 0 20
    endloop
  endfacet
  facet normal 0 -1 0
    outer loop
      vertex 30 0 50
      vertex 40 0 30
      vertex 65 0 40
    endloop
  endfacet
  facet normal 0 -1 0
    outer loop
      vertex 30 0 30
      vertex 40 0 20
      vertex 40 0 30
    endloop
  endfacet
  facet normal 0 -1 0
    outer loop
      vertex 40 0 30
      vertex 60 0 20
      vertex 65 0 40
    endloop
  endfacet
  facet normal -0.707107 0.707107 0
    outer loop
      vertex 21.2132 21.2132 50
      vertex 56.5685 56.5685 40
      vertex 45.9619 45.9619 40
    endloop
  endfacet
  facet normal -0.707107 0.707107 0
    outer loop
      vertex 91.9239 91.9239 50
      vertex 70.7107 70.7107 0
      vertex 81.3173 81.3173 40
    endloop
  endfacet
  facet normal -0.707107 0.707107 0
    outer loop
      vertex 56.5685 56.5685 10
      vertex 70.7107 70.7107 0
      vertex 45.9619 45.9619 10
    endloop
  endfacet
  facet normal -0.707107 0.707107 0
    outer loop
      vertex 45.9619 45.9619 40
      vertex 45.9619 45.9619 10
      vertex 42.4264 42.4264 20
    endloop
  endfacet
  facet normal -0.707107 0.707107 0
    outer loop
      vertex 45.9619 45.9619 10
      vertex 70.7107 70.7107 0
      vertex 0 0 0
    endloop
  endfacet
  facet normal -0.707107 0.707107 0
    outer loop
      vertex 21.2132 21.2132 50
      vertex 28.2843 28.2843 30
      vertex 21.2132 21.2132 30
    endloop
  endfacet
  facet normal -0.707107 0.707107 0
    outer loop
      vertex 21.2132 21.2132 50
      vertex 91.9239 91.9239 50
      vertex 56.5685 56.5685 40
    endloop
  endfacet
  facet normal -0.707107 0.707107 0
    outer loop
      vertex 69.2965 69.2965 10
      vertex 70.7107 70.7107 0
      vertex 60.1041 60.1041 10
    endloop
  endfacet
  facet normal -0.707107 0.707107 0
    outer loop
      vertex 70.7107 70.7107 0
      vertex 69.2965 69.2965 10
      vertex 81.3173 81.3173 40
    endloop
  endfacet
  facet normal -0.707107 0.707107 0
    outer loop
      vertex 60.1041 60.1041 10
      vertex 56.5685 56.5685 10
      vertex 56.5685 56.5685 40
    endloop
  endfacet
  facet normal -0.707107 0.707107 0
    outer loop
      vertex 60.1041 60.1041 10
      vertex 70.7107 70.7107 0
      vertex 56.5685 56.5685 10
    endloop
  endfacet
  facet normal -0.707107 0.707107 0
    outer loop
      vertex 91.9239 91.9239 50
      vertex 60.1041 60.1041 40
      vertex 56.5685 56.5685 40
    endloop
  endfacet
  facet normal -0.707107 0.707107 0
    outer loop
      vertex 60.1041 60.1041 40
      vertex 60.1041 60.1041 10
      vertex 56.5685 56.5685 40
    endloop
  endfacet
  facet normal -0.707107 0.707107 0
    outer loop
      vertex 91.9239 91.9239 50
      vertex 81.3173 81.3173 40
      vertex 60.1041 60.1041 40
    endloop
  endfacet
  facet normal -0.707107 0.707107 0
    outer loop
      vertex 35.3553 35.3553 20
      vertex 28.2843 28.2843 20
      vertex 28.2843 28.2843 30
    endloop
  endfacet
  facet normal -0.707107 0.707107 0
    outer loop
      vertex 28.2843 28.2843 20
      vertex 45.9619 45.9619 10
      vertex 0 0 0
    endloop
  endfacet
  facet normal -0.707107 0.707107 0
    outer loop
      vertex 21.2132 21.2132 50
      vertex 14.1421 14.1421 20
      vertex 0 0 0
    endloop
  endfacet
  facet normal -0.707107 0.707107 0
    outer loop
      vertex 14.1421 14.1421 20
      vertex 28.2843 28.2843 20
      vertex 0 0 0
    endloop
  endfacet
  facet normal -0.707107 0.707107 0
    outer loop
      vertex 21.2132 21.2132 50
      vertex 21.2132 21.2132 30
      vertex 14.1421 14.1421 20
    endloop
  endfacet
  facet normal -0.707107 0.707107 0
    outer loop
      vertex 42.4264 42.4264 20
      vertex 45.9619 45.9619 10
      vertex 35.3553 35.3553 20
    endloop
  endfacet
  facet normal -0.707107 0.707107 0
    outer loop
      vertex 35.3553 35.3553 20
      vertex 45.9619 45.9619 10
      vertex 28.2843 28.2843 20
    endloop
  endfacet
  facet normal -0.707107 0.707107 0
    outer loop
      vertex 45.9619 45.9619 40
      vertex 28.2843 28.2843 30
      vertex 21.2132 21.2132 50
    endloop
  endfacet
  facet normal -0.707107 0.707107 0
    outer loop
      vertex 28.2843 28.2843 30
      vertex 28.2843 28.2843 20
      vertex 21.2132 21.2132 30
    endloop
  endfacet
  facet normal -0.707107 0.707107 0
    outer loop
      vertex 45.9619 45.9619 40
      vertex 42.4264 42.4264 20
      vertex 28.2843 28.2843 30
    endloop
  endfacet
  facet normal 0 0 -1
    outer loop
      vertex 0 0 0
      vertex 96.5926 25.8819 0
      vertex 100 0 0
    endloop
  endfacet
  facet normal -0.852081 -0.112176 0.511248
    outer loop
      vertex 30 0 50
      vertex 28.9778 7.76457 50
      vertex 0 0 0
    endloop
  endfacet
  facet normal 0 0 1
    outer loop
      vertex 130 0 50
      vertex 125.57 33.6465 50
      vertex 30 0 50
    endloop
  endfacet
  facet normal 0 0 1
    outer loop
      vertex 125.57 33.6465 50
      vertex 28.9778 7.76457 50
      vertex 30 0 50
    endloop
  endfacet
  facet normal 0.852081 0.112178 -0.511248
    outer loop
      vertex 100 0 0
      vertex 96.5926 25.8819 0
      vertex 130 0 50
    endloop
  endfacet
  facet normal 0.852082 0.112188 -0.511244
    outer loop
      vertex 96.5926 25.8819 0
      vertex 125.57 33.6465 50
      vertex 130 0 50
    endloop
  endfacet
  facet normal 0 0 -1
    outer loop
      vertex 0 0 0
      vertex 86.6025 50 0
      vertex 96.5926 25.8819 0
    endloop
  endfacet
  facet normal -0.794013 -0.328889 0.511249
    outer loop
      vertex 28.9778 7.76457 50
      vertex 25.9808 15 50
      vertex 0 0 0
    endloop
  endfacet
  facet normal 0 0 1
    outer loop
      vertex 125.57 33.6465 50
      vertex 112.583 65 50
      vertex 28.9778 7.76457 50
    endloop
  endfacet
  facet normal 0 0 1
    outer loop
      vertex 112.583 65 50
      vertex 25.9808 15 50
      vertex 28.9778 7.76457 50
    endloop
  endfacet
  facet normal 0.794014 0.328893 -0.511244
    outer loop
      vertex 96.5926 25.8819 0
      vertex 86.6025 50 0
      vertex 125.57 33.6465 50
    endloop
  endfacet
  facet normal 0.794015 0.328891 -0.511245
    outer loop
      vertex 86.6025 50 0
      vertex 112.583 65 50
      vertex 125.57 33.6465 50
    endloop
  endfacet
  facet normal 0 0 -1
    outer loop
      vertex 0 0 0
      vertex 70.7107 70.7107 0
      vertex 86.6025 50 0
    endloop
  endfacet
  facet normal -0.681832 -0.523193 0.511248
    outer loop
      vertex 25.9808 15 50
      vertex 21.2132 21.2132 50
      vertex 0 0 0
    endloop
  endfacet
  facet normal 0 0 1
    outer loop
      vertex 112.583 65 50
      vertex 91.9239 91.9239 50
      vertex 25.9808 15 50
    endloop
  endfacet
  facet normal 0 0 1
    outer loop
      vertex 91.9239 91.9239 50
      vertex 21.2132 21.2132 50
      vertex 25.9808 15 50
    endloop
  endfacet
  facet normal 0.681837 0.523189 -0.511246
    outer loop
      vertex 86.6025 50 0
      vertex 70.7107 70.7107 0
      vertex 112.583 65 50
    endloop
  endfacet
  facet normal 0.681838 0.523185 -0.511248
    outer loop
      vertex 70.7107 70.7107 0
      vertex 91.9239 91.9239 50
      vertex 112.583 65 50
    endloop
  endfacet
  facet normal -0.991445 -0.130525 -0
    outer loop
      vertex 80 0 40
      vertex 77.2741 20.7055 40
      vertex 80 0 10
    endloop
  endfacet
  facet normal -0.991445 -0.130525 -0
    outer loop
      vertex 77.2741 20.7055 40
      vertex 77.2741 20.7055 10
      vertex 80 0 10
    endloop
  endfacet
  facet normal 0 0 -1
    outer loop
      vertex 65 0 40
      vertex 62.7852 16.8232 40
      vertex 80 0 40
    endloop
  endfacet
  facet normal 0 0 -1
    outer loop
      vertex 62.7852 16.8232 40
      vertex 77.2741 20.7055 40
      vertex 80 0 40
    endloop
  endfacet
  facet normal 0.991445 0.130525 -0
    outer loop
      vertex 65 0 10
      vertex 62.7852 16.8232 10
      vertex 65 0 40
    endloop
  endfacet
  facet normal 0.991445 0.130525 -0
    outer loop
      vertex 62.7852 16.8232 10
      vertex 62.7852 16.8232 40
      vertex 65 0 40
    endloop
  endfacet
  facet normal 0 0 1
    outer loop
      vertex 80 0 10
      vertex 77.2741 20.7055 10
      vertex 65 0 10
    endloop
  endfacet
  facet normal 0 0 1
    outer loop
      vertex 77.2741 20.7055 10
      vertex 62.7852 16.8232 10
      vertex 65 0 10
    endloop
  endfacet
  facet normal -0.923879 -0.382686 -0
    outer loop
      vertex 77.2741 20.7055 40
      vertex 69.282 40 40
      vertex 77.2741 20.7055 10
    endloop
  endfacet
  facet normal -0.923879 -0.382686 -0
    outer loop
      vertex 69.282 40 40
      vertex 69.282 40 10
      vertex 77.2741 20.7055 10
    endloop
  endfacet
  facet normal 0 0 -1
    outer loop
      vertex 62.7852 16.8232 40
      vertex 56.2917 32.5 40
      vertex 77.2741 20.7055 40
    endloop
  endfacet
  facet normal 0 0 -1
    outer loop
      vertex 56.2917 32.5 40
      vertex 69.282 40 40
      vertex 77.2741 20.7055 40
    endloop
  endfacet
  facet normal 0.92388 0.382681 -0
    outer loop
      vertex 62.7852 16.8232 10
      vertex 56.2917 32.5 10
      vertex 62.7852 16.8232 40
    endloop
  endfacet
  facet normal 0.92388 0.382681 -0
    outer loop
      vertex 56.2917 32.5 10
      vertex 56.2917 32.5 40
      vertex 62.7852 16.8232 40
    endloop
  endfacet
  facet normal 0 0 1
    outer loop
      vertex 77.2741 20.7055 10
      vertex 69.282 40 10
      vertex 62.7852 16.8232 10
    endloop
  endfacet
  facet normal 0 0 1
    outer loop
      vertex 69.282 40 10
      vertex 56.2917 32.5 10
      vertex 62.7852 16.8232 10
    endloop
  endfacet
  facet normal -0.793352 -0.608763 -0
    outer loop
      vertex 69.282 40 40
      vertex 56.5685 56.5685 40
      vertex 69.282 40 10
    endloop
  endfacet
  facet normal -0.793352 -0.608763 -0
    outer loop
      vertex 56.5685 56.5685 40
      vertex 56.5685 56.5685 10
      vertex 69.282 40 10
    endloop
  endfacet
  facet normal 0 0 -1
    outer loop
      vertex 56.2917 32.5 40
      vertex 45.9619 45.9619 40
      vertex 69.282 40 40
    endloop
  endfacet
  facet normal 0 0 -1
    outer loop
      vertex 45.9619 45.9619 40
      vertex 56.5685 56.5685 40
      vertex 69.282 40 40
    endloop
  endfacet
  facet normal 0.79335 0.608766 -0
    outer loop
      vertex 56.2917 32.5 10
      vertex 45.9619 45.9619 10
      vertex 56.2917 32.5 40
    endloop
  endfacet
  facet normal 0.79335 0.608766 -0
    outer loop
      vertex 45.9619 45.9619 10
      vertex 45.9619 45.9619 40
      vertex 56.2917 32.5 40
    endloop
  endfacet
  facet normal 0 0 1
    outer loop
      vertex 69.282 40 10
      vertex 56.5685 56.5685 10
      vertex 56.2917 32.5 10
    endloop
  endfacet
  facet normal 0 0 1
    outer loop
      vertex 56.5685 56.5685 10
      vertex 45.9619 45.9619 10
      vertex 56.2917 32.5 10
    endloop
  endfacet
  facet normal -0.864369 -0.11381 0.489809
    outer loop
      vertex 115 0 40
      vertex 111.081 29.7642 40
      vertex 98 0 10
    endloop
  endfacet
  facet normal -0.864376 -0.113798 0.4898
    outer loop
      vertex 111.081 29.7642 40
      vertex 94.6607 25.3643 10
      vertex 98 0 10
    endloop
  endfacet
  facet normal 0 0 -1
    outer loop
      vertex 85 0 40
      vertex 82.1037 21.9996 40
      vertex 115 0 40
    endloop
  endfacet
  facet normal 0 0 -1
    outer loop
      vertex 82.1037 21.9996 40
      vertex 111.081 29.7642 40
      vertex 115 0 40
    endloop
  endfacet
  facet normal 0.991445 0.130526 -0
    outer loop
      vertex 85 0 10
      vertex 82.1037 21.9996 10
      vertex 85 0 40
    endloop
  endfacet
  facet normal 0.991445 0.130526 -0
    outer loop
      vertex 82.1037 21.9996 10
      vertex 82.1037 21.9996 40
      vertex 85 0 40
    endloop
  endfacet
  facet normal 0 0 1
    outer loop
      vertex 98 0 10
      vertex 94.6607 25.3643 10
      vertex 85 0 10
    endloop
  endfacet
  facet normal 0 0 1
    outer loop
      vertex 94.6607 25.3643 10
      vertex 82.1037 21.9996 10
      vertex 85 0 10
    endloop
  endfacet
  facet normal -0.805474 -0.333625 0.489802
    outer loop
      vertex 111.081 29.7642 40
      vertex 99.5929 57.5 40
      vertex 94.6607 25.3643 10
    endloop
  endfacet
  facet normal -0.805466 -0.333634 0.489809
    outer loop
      vertex 99.5929 57.5 40
      vertex 84.8705 49 10
      vertex 94.6607 25.3643 10
    endloop
  endfacet
  facet normal 0 0 -1
    outer loop
      vertex 82.1037 21.9996 40
      vertex 73.6122 42.5 40
      vertex 111.081 29.7642 40
    endloop
  endfacet
  facet normal 0 0 -1
    outer loop
      vertex 73.6122 42.5 40
      vertex 99.5929 57.5 40
      vertex 111.081 29.7642 40
    endloop
  endfacet
  facet normal 0.92388 0.382682 -0
    outer loop
      vertex 82.1037 21.9996 10
      vertex 73.6122 42.5 10
      vertex 82.1037 21.9996 40
    endloop
  endfacet
  facet normal 0.92388 0.382682 -0
    outer loop
      vertex 73.6122 42.5 10
      vertex 73.6122 42.5 40
      vertex 82.1037 21.9996 40
    endloop
  endfacet
  facet normal 0 0 1
    outer loop
      vertex 94.6607 25.3643 10
      vertex 84.8705 49 10
      vertex 82.1037 21.9996 10
    endloop
  endfacet
  facet normal 0 0 1
    outer loop
      vertex 84.8705 49 10
      vertex 73.6122 42.5 10
      vertex 82.1037 21.9996 10
    endloop
  endfacet
  facet normal -0.69167 -0.530735 0.48981
    outer loop
      vertex 99.5929 57.5 40
      vertex 81.3173 81.3173 40
      vertex 84.8705 49 10
    endloop
  endfacet
  facet normal -0.69167 -0.530735 0.489809
    outer loop
      vertex 81.3173 81.3173 40
      vertex 69.2965 69.2965 10
      vertex 84.8705 49 10
    endloop
  endfacet
  facet normal 0 0 -1
    outer loop
      vertex 73.6122 42.5 40
      vertex 60.1041 60.1041 40
      vertex 99.5929 57.5 40
    endloop
  endfacet
  facet normal 0 0 -1
    outer loop
      vertex 60.1041 60.1041 40
      vertex 81.3173 81.3173 40
      vertex 99.5929 57.5 40
    endloop
  endfacet
  facet normal 0.793353 0.608761 -0
    outer loop
      vertex 73.6122 42.5 10
      vertex 60.1041 60.1041 10
      vertex 73.6122 42.5 40
    endloop
  endfacet
  facet normal 0.793353 0.608761 -0
    outer loop
      vertex 60.1041 60.1041 10
      vertex 60.1041 60.1041 40
      vertex 73.6122 42.5 40
    endloop
  endfacet
  facet normal 0 0 1
    outer loop
      vertex 84.8705 49 10
      vertex 69.2965 69.2965 10
      vertex 73.6122 42.5 10
    endloop
  endfacet
  facet normal 0 0 1
    outer loop
      vertex 69.2965 69.2965 10
      vertex 60.1041 60.1041 10
      vertex 73.6122 42.5 10
    endloop
  endfacet
  facet normal -0.704063 -0.0926893 -0.704063
    outer loop
      vertex 30 0 30
      vertex 28.9778 7.76457 30
      vertex 40 0 20
    endloop
  endfacet
  facet normal -0.704064 -0.0926937 -0.704061
    outer loop
      vertex 28.9778 7.76457 30
      vertex 38.637 10.3528 20
      vertex 40 0 20
    endloop
  endfacet
  facet normal 0.704062 0.0926938 -0.704062
    outer loop
      vertex 20 0 20
      vertex 19.3185 5.17638 20
      vertex 30 0 30
    endloop
  endfacet
  facet normal 0.704062 0.0926892 -0.704064
    outer loop
      vertex 19.3185 5.17638 20
      vertex 28.9778 7.76457 30
      vertex 30 0 30
    endloop
  endfacet
  facet normal 0 0 1
    outer loop
      vertex 40 0 20
      vertex 38.637 10.3528 20
      vertex 20 0 20
    endloop
  endfacet
  facet normal 0 0 1
    outer loop
      vertex 38.637 10.3528 20
      vertex 19.3185 5.17638 20
      vertex 20 0 20
    endloop
  endfacet
  facet normal -0.656084 -0.271757 -0.704061
    outer loop
      vertex 28.9778 7.76457 30
      vertex 25.9808 15 30
      vertex 38.637 10.3528 20
    endloop
  endfacet
  facet normal -0.656084 -0.271759 -0.704061
    outer loop
      vertex 25.9808 15 30
      vertex 34.641 20 20
      vertex 38.637 10.3528 20
    endloop
  endfacet
  facet normal 0.656081 0.271756 -0.704064
    outer loop
      vertex 19.3185 5.17638 20
      vertex 17.3205 10 20
      vertex 28.9778 7.76457 30
    endloop
  endfacet
  facet normal 0.656081 0.271756 -0.704064
    outer loop
      vertex 17.3205 10 20
      vertex 25.9808 15 30
      vertex 28.9778 7.76457 30
    endloop
  endfacet
  facet normal 0 0 1
    outer loop
      vertex 38.637 10.3528 20
      vertex 34.641 20 20
      vertex 19.3185 5.17638 20
    endloop
  endfacet
  facet normal 0 0 1
    outer loop
      vertex 34.641 20 20
      vertex 17.3205 10 20
      vertex 19.3185 5.17638 20
    endloop
  endfacet
  facet normal -0.56339 -0.432308 -0.704061
    outer loop
      vertex 25.9808 15 30
      vertex 21.2132 21.2132 30
      vertex 34.641 20 20
    endloop
  endfacet
  facet normal -0.563391 -0.432301 -0.704064
    outer loop
      vertex 21.2132 21.2132 30
      vertex 28.2843 28.2843 20
      vertex 34.641 20 20
    endloop
  endfacet
  facet normal 0.563386 0.432309 -0.704064
    outer loop
      vertex 17.3205 10 20
      vertex 14.1421 14.1421 20
      vertex 25.9808 15 30
    endloop
  endfacet
  facet normal 0.563387 0.432306 -0.704064
    outer loop
      vertex 14.1421 14.1421 20
      vertex 21.2132 21.2132 30
      vertex 25.9808 15 30
    endloop
  endfacet
  facet normal 0 0 1
    outer loop
      vertex 34.641 20 20
      vertex 28.2843 28.2843 20
      vertex 17.3205 10 20
    endloop
  endfacet
  facet normal 0 0 1
    outer loop
      vertex 28.2843 28.2843 20
      vertex 14.1421 14.1421 20
      vertex 17.3205 10 20
    endloop
  endfacet
  facet normal -0.44644 -0.0587762 -0.892881
    outer loop
      vertex 40 0 30
      vertex 38.637 10.3528 30
      vertex 60 0 20
    endloop
  endfacet
  facet normal -0.446439 -0.0587736 -0.892882
    outer loop
      vertex 38.637 10.3528 30
      vertex 57.9556 15.5291 20
      vertex 60 0 20
    endloop
  endfacet
  facet normal 0.704063 0.0926908 0.704063
    outer loop
      vertex 50 0 20
      vertex 48.2963 12.941 20
      vertex 40 0 30
    endloop
  endfacet
  facet normal 0.704061 0.0926933 0.704064
    outer loop
      vertex 48.2963 12.941 20
      vertex 38.637 10.3528 30
      vertex 40 0 30
    endloop
  endfacet
  facet normal 0 0 1
    outer loop
      vertex 60 0 20
      vertex 57.9556 15.5291 20
      vertex 50 0 20
    endloop
  endfacet
  facet normal 0 0 1
    outer loop
      vertex 57.9556 15.5291 20
      vertex 48.2963 12.941 20
      vertex 50 0 20
    endloop
  endfacet
  facet normal -0.416016 -0.172319 -0.892881
    outer loop
      vertex 38.637 10.3528 30
      vertex 34.641 20 30
      vertex 57.9556 15.5291 20
    endloop
  endfacet
  facet normal -0.416016 -0.172321 -0.892881
    outer loop
      vertex 34.641 20 30
      vertex 51.9615 30 20
      vertex 57.9556 15.5291 20
    endloop
  endfacet
  facet normal 0.656081 0.271757 0.704064
    outer loop
      vertex 48.2963 12.941 20
      vertex 43.3013 25 20
      vertex 38.637 10.3528 30
    endloop
  endfacet
  facet normal 0.656081 0.271757 0.704064
    outer loop
      vertex 43.3013 25 20
      vertex 34.641 20 30
      vertex 38.637 10.3528 30
    endloop
  endfacet
  facet normal 0 0 1
    outer loop
      vertex 57.9556 15.5291 20
      vertex 51.9615 30 20
      vertex 48.2963 12.941 20
    endloop
  endfacet
  facet normal 0 0 1
    outer loop
      vertex 51.9615 30 20
      vertex 43.3013 25 20
      vertex 48.2963 12.941 20
    endloop
  endfacet
  facet normal -0.357243 -0.274119 -0.892881
    outer loop
      vertex 34.641 20 30
      vertex 28.2843 28.2843 30
      vertex 51.9615 30 20
    endloop
  endfacet
  facet normal -0.357242 -0.274121 -0.89288
    outer loop
      vertex 28.2843 28.2843 30
      vertex 42.4264 42.4264 20
      vertex 51.9615 30 20
    endloop
  endfacet
  facet normal 0.563387 0.432307 0.704064
    outer loop
      vertex 43.3013 25 20
      vertex 35.3553 35.3553 20
      vertex 34.641 20 30
    endloop
  endfacet
  facet normal 0.563395 0.432304 0.704059
    outer loop
      vertex 35.3553 35.3553 20
      vertex 28.2843 28.2843 30
      vertex 34.641 20 30
    endloop
  endfacet
  facet normal 0 0 1
    outer loop
      vertex 51.9615 30 20
      vertex 42.4264 42.4264 20
      vertex 43.3013 25 20
    endloop
  endfacet
  facet normal 0 0 1
    outer loop
      vertex 42.4264 42.4264 20
      vertex 35.3553 35.3553 20
      vertex 43.3013 25 20
    endloop
  endfacet
endsolid OpenSCAD_Model
